<?xml version="1.0" encoding="UTF-8"?>
<svg version="1.1" xmlns="http://www.w3.org/2000/svg" width="347" height="350">
<path d="M0 0 C1.1437207 0.04616455 1.1437207 0.04616455 2.31054688 0.09326172 C8.54780812 0.42909281 14.11528503 2.07814262 20 4.125 C22.97857418 5.13485905 25.9436459 6.00805897 29 6.75 C32.5625 7.625 32.5625 7.625 34.5625 8.625 C34.5625 9.285 34.5625 9.945 34.5625 10.625 C35.21476563 10.66238281 35.86703125 10.69976562 36.5390625 10.73828125 C41.9362535 11.14426464 45.80664118 11.87717046 50.5625 14.625 C52.87909023 15.66770151 55.21999891 16.64114954 57.5625 17.625 C57.5625 18.285 57.5625 18.945 57.5625 19.625 C58.119375 19.74875 58.67625 19.8725 59.25 20 C61.78364364 20.68476855 64.14171032 21.61633763 66.5625 22.625 C66.5625 23.285 66.5625 23.945 66.5625 24.625 C68.2125 24.955 69.8625 25.285 71.5625 25.625 C71.5625 26.285 71.5625 26.945 71.5625 27.625 C72.28824219 27.8828125 73.01398438 28.140625 73.76171875 28.40625 C76.68297667 29.67742499 78.87122649 31.16516402 81.375 33.125 C82.16519531 33.7334375 82.95539063 34.341875 83.76953125 34.96875 C84.36121094 35.5153125 84.95289063 36.061875 85.5625 36.625 C85.5625 37.285 85.5625 37.945 85.5625 38.625 C86.2225 38.810625 86.8825 38.99625 87.5625 39.1875 C93.4307543 41.99937185 98.07239174 46.98006043 102.5625 51.625 C103.47 52.49125 104.3775 53.3575 105.3125 54.25 C107.5625 56.625 107.5625 56.625 107.5625 58.625 C108.2225 58.625 108.8825 58.625 109.5625 58.625 C111.11328125 60.6015625 111.11328125 60.6015625 112.875 63.25 C114.95939561 66.3329868 117.03179416 69.27695341 119.5 72.0625 C121.5625 74.625 121.5625 74.625 121.5625 77.625 C122.5525 77.955 123.5425 78.285 124.5625 78.625 C126.30922985 82.1184597 127.5625 84.69345568 127.5625 88.625 C128.5525 88.955 129.5425 89.285 130.5625 89.625 C134.88713687 96.18419311 138.02196729 102.92233644 139.5625 110.625 C140.21463539 111.96550052 140.87629969 113.30161368 141.5625 114.625 C141.5625 115.615 141.5625 116.605 141.5625 117.625 C142.2225 117.625 142.8825 117.625 143.5625 117.625 C143.7578125 119.578125 143.953125 121.53125 144.1484375 123.484375 C144.46423296 125.66677672 144.46423296 125.66677672 145.59375 127.59375 C146.75056532 130.0193305 146.76603785 131.70471321 146.6875 134.375 C146.66945313 135.17421875 146.65140625 135.9734375 146.6328125 136.796875 C146.59800781 137.70179688 146.59800781 137.70179688 146.5625 138.625 C147.2225 138.625 147.8825 138.625 148.5625 138.625 C149.41100988 149.03035983 149.72066661 159.35843939 149.69287109 169.7956543 C149.6874973 172.18870348 149.69286272 174.58156572 149.69921875 176.97460938 C149.70372355 186.19226944 149.70039885 195.46393486 148.5625 204.625 C148.2325 204.955 147.9025 205.285 147.5625 205.625 C147.27862221 207.84645633 147.11484827 210.06817648 146.94140625 212.30078125 C146.53954993 214.76577622 145.68776421 216.41387771 144.5625 218.625 C144.11749715 220.75093058 144.11749715 220.75093058 143.9375 222.875 C143.81375 224.1125 143.69 225.35 143.5625 226.625 C142.9025 226.625 142.2425 226.625 141.5625 226.625 C141.43875 227.553125 141.315 228.48125 141.1875 229.4375 C140.5625 232.625 140.5625 232.625 138.5625 235.625 C138.26601563 236.68847656 137.96953125 237.75195312 137.6640625 238.84765625 C136.48526705 242.88983782 134.87273444 246.34543386 132.9375 250.0625 C132.45023437 251.01672852 132.45023437 251.01672852 131.953125 251.99023438 C131.16178647 253.53799944 130.3629333 255.0819187 129.5625 256.625 C128.9025 256.625 128.2425 256.625 127.5625 256.625 C127.19125 258.1409375 127.19125 258.1409375 126.8125 259.6875 C125.33901357 264.83947737 122.89533434 270.27690074 118.5625 273.625 C117.9025 273.625 117.2425 273.625 116.5625 273.625 C116.459375 274.388125 116.35625 275.15125 116.25 275.9375 C115.51538806 278.80916484 114.8908935 279.85542094 112.5625 281.625 C111.9025 281.625 111.2425 281.625 110.5625 281.625 C110.48 282.24375 110.3975 282.8625 110.3125 283.5 C109.5625 285.625 109.5625 285.625 107.5625 286.6875 C106.9025 286.996875 106.2425 287.30625 105.5625 287.625 C105.2325 288.615 104.9025 289.605 104.5625 290.625 C103.9025 290.625 103.2425 290.625 102.5625 290.625 C102.5625 291.285 102.5625 291.945 102.5625 292.625 C100.94147032 294.33608689 99.26746537 295.99753306 97.5625 297.625 C96.4796875 298.7696875 96.4796875 298.7696875 95.375 299.9375 C93.5625 301.625 93.5625 301.625 91.5625 301.625 C91.5625 302.285 91.5625 302.945 91.5625 303.625 C90.5725 303.625 89.5825 303.625 88.5625 303.625 C88.2325 304.615 87.9025 305.605 87.5625 306.625 C85.78515625 308.23046875 85.78515625 308.23046875 83.625 309.8125 C82.91472656 310.34230469 82.20445312 310.87210937 81.47265625 311.41796875 C79.5625 312.625 79.5625 312.625 77.5625 312.625 C77.5625 313.285 77.5625 313.945 77.5625 314.625 C75.375 316.0625 75.375 316.0625 72.5625 317.625 C71.716875 318.16125 70.87125 318.6975 70 319.25 C67.5625 320.625 67.5625 320.625 65.5 321.0625 C63.37879796 321.50442161 63.37879796 321.50442161 61.75 323.5 C58.96497241 326.20545537 56.15723167 327.19950296 52.5625 328.625 C51.593125 329.16125 50.62375 329.6975 49.625 330.25 C45.83569913 331.95131876 42.68892601 332.26927362 38.5625 332.625 C38.5625 333.285 38.5625 333.945 38.5625 334.625 C37.00283782 335.133783 35.43960759 335.63163469 33.875 336.125 C32.56982422 336.54265625 32.56982422 336.54265625 31.23828125 336.96875 C28.56858323 337.62350805 26.29853316 337.74331495 23.5625 337.625 C23.5625 338.285 23.5625 338.945 23.5625 339.625 C18.90190132 341.0929051 13.98454354 341.00171448 9.14257812 341.23046875 C5.55151947 341.10101838 5.55151947 341.10101838 2.5625 342.625 C-5.4941741 344.04090065 -13.79184762 343.77511506 -21.9375 343.75 C-23.19175781 343.75386719 -24.44601563 343.75773437 -25.73828125 343.76171875 C-32.70109461 343.75442785 -39.52809608 343.50777891 -46.4375 342.625 C-46.4375 341.965 -46.4375 341.305 -46.4375 340.625 C-47.54609375 340.63660156 -48.6546875 340.64820313 -49.796875 340.66015625 C-51.26041498 340.66953792 -52.72395678 340.67863771 -54.1875 340.6875 C-54.91710937 340.69587891 -55.64671875 340.70425781 -56.3984375 340.71289062 C-59.92420558 340.72891684 -63.04784916 340.57792713 -66.4375 339.625 C-66.4375 338.965 -66.4375 338.305 -66.4375 337.625 C-67.10136719 337.57601563 -67.76523438 337.52703125 -68.44921875 337.4765625 C-77.21957381 336.73396309 -77.21957381 336.73396309 -81.4375 334.625 C-81.4375 333.965 -81.4375 333.305 -81.4375 332.625 C-82.01757812 332.50382812 -82.59765625 332.38265625 -83.1953125 332.2578125 C-87.71778442 331.28764526 -92.07500966 330.19102217 -96.4375 328.625 C-96.4375 327.965 -96.4375 327.305 -96.4375 326.625 C-98.4175 326.295 -100.3975 325.965 -102.4375 325.625 C-102.4375 324.965 -102.4375 324.305 -102.4375 323.625 C-106.8925 322.14 -106.8925 322.14 -111.4375 320.625 C-111.4375 319.965 -111.4375 319.305 -111.4375 318.625 C-112.7575 318.295 -114.0775 317.965 -115.4375 317.625 C-115.4375 316.965 -115.4375 316.305 -115.4375 315.625 C-115.98019531 315.54121094 -116.52289063 315.45742188 -117.08203125 315.37109375 C-120.24499031 314.36922778 -122.46102204 312.65436223 -125.125 310.6875 C-126.58486328 309.62208984 -126.58486328 309.62208984 -128.07421875 308.53515625 C-130.4375 306.625 -130.4375 306.625 -131.4375 304.625 C-132.4275 304.295 -133.4175 303.965 -134.4375 303.625 C-134.4375 302.965 -134.4375 302.305 -134.4375 301.625 C-135.4275 301.295 -136.4175 300.965 -137.4375 300.625 C-137.4375 299.965 -137.4375 299.305 -137.4375 298.625 C-138.4275 298.625 -139.4175 298.625 -140.4375 298.625 C-140.7675 296.975 -141.0975 295.325 -141.4375 293.625 C-143.0875 293.295 -144.7375 292.965 -146.4375 292.625 C-146.4375 291.965 -146.4375 291.305 -146.4375 290.625 C-147.0975 290.625 -147.7575 290.625 -148.4375 290.625 C-148.4375 289.635 -148.4375 288.645 -148.4375 287.625 C-149.4275 287.295 -150.4175 286.965 -151.4375 286.625 C-151.7675 284.975 -152.0975 283.325 -152.4375 281.625 C-153.4275 281.625 -154.4175 281.625 -155.4375 281.625 C-155.4375 280.965 -155.4375 280.305 -155.4375 279.625 C-156.0975 279.625 -156.7575 279.625 -157.4375 279.625 C-158.61111494 277.96361059 -159.70175263 276.24320517 -160.75 274.5 C-162.76030823 271.23324912 -164.70756416 268.12537387 -167.25 265.25 C-170.15600932 261.76278881 -171.4375 259.16458847 -171.4375 254.625 C-172.4275 254.295 -173.4175 253.965 -174.4375 253.625 C-174.4375 251.975 -174.4375 250.325 -174.4375 248.625 C-175.0975 248.625 -175.7575 248.625 -176.4375 248.625 C-176.7675 246.975 -177.0975 245.325 -177.4375 243.625 C-178.0975 243.625 -178.7575 243.625 -179.4375 243.625 C-179.54707031 243.02171875 -179.65664062 242.4184375 -179.76953125 241.796875 C-180.63433426 236.9117666 -180.63433426 236.9117666 -182.9375 232.625 C-184.94897962 229.94302717 -185.20331763 227.38314574 -185.8359375 224.12890625 C-186.68222218 220.60638367 -188.08054196 217.3919649 -189.53515625 214.08203125 C-192.12524512 207.02936503 -191.77566591 199.30489434 -192.04296875 191.88476562 C-192.08035156 190.96759766 -192.11773437 190.05042969 -192.15625 189.10546875 C-192.18654297 188.26910889 -192.21683594 187.43274902 -192.24804688 186.57104492 C-192.22991049 184.62083465 -192.22991049 184.62083465 -193.4375 183.625 C-193.52476223 181.84428754 -193.54449041 180.0601686 -193.53515625 178.27734375 C-193.53193359 177.19775391 -193.52871094 176.11816406 -193.52539062 175.00585938 C-193.51701172 173.86955078 -193.50863281 172.73324219 -193.5 171.5625 C-193.49548828 170.42232422 -193.49097656 169.28214844 -193.48632812 168.10742188 C-193.47449747 165.27989649 -193.4580141 162.4524736 -193.4375 159.625 C-192.7775 159.625 -192.1175 159.625 -191.4375 159.625 C-191.45844727 159.03710693 -191.47939453 158.44921387 -191.50097656 157.84350586 C-191.88475794 145.38882852 -191.56834957 134.46430993 -187.4375 122.625 C-186.7775 122.625 -186.1175 122.625 -185.4375 122.625 C-185.458125 121.51125 -185.47875 120.3975 -185.5 119.25 C-185.4375 115.625 -185.4375 115.625 -184.4375 113.625 C-183.7775 113.625 -183.1175 113.625 -182.4375 113.625 C-182.4375 112.305 -182.4375 110.985 -182.4375 109.625 C-181.7775 109.625 -181.1175 109.625 -180.4375 109.625 C-180.458125 108.531875 -180.47875 107.43875 -180.5 106.3125 C-180.4375 102.625 -180.4375 102.625 -179.4375 99.625 C-178.7775 99.625 -178.1175 99.625 -177.4375 99.625 C-177.1075 97.975 -176.7775 96.325 -176.4375 94.625 C-175.7775 94.625 -175.1175 94.625 -174.4375 94.625 C-174.1075 92.645 -173.7775 90.665 -173.4375 88.625 C-172.7775 88.625 -172.1175 88.625 -171.4375 88.625 C-171.251875 87.7896875 -171.251875 87.7896875 -171.0625 86.9375 C-170.37773145 84.40385636 -169.44616237 82.04578968 -168.4375 79.625 C-167.7775 79.625 -167.1175 79.625 -166.4375 79.625 C-165.23121992 77.29285852 -164.2720262 75.12857861 -163.4375 72.625 C-162.4475 72.13 -162.4475 72.13 -161.4375 71.625 C-160.43103315 69.87179968 -159.42665083 68.117208 -158.44921875 66.34765625 C-157.32735648 64.43745832 -156.19551502 62.98346615 -154.4375 61.625 C-153.7775 61.625 -153.1175 61.625 -152.4375 61.625 C-152.23125 60.92375 -152.025 60.2225 -151.8125 59.5 C-150.06449106 55.84507222 -147.70471936 53.04423876 -144.4375 50.625 C-143.4475 50.625 -142.4575 50.625 -141.4375 50.625 C-141.34984375 50.0371875 -141.2621875 49.449375 -141.171875 48.84375 C-140.24009745 46.0285923 -138.95940091 45.00401579 -136.6875 43.125 C-135.96691406 42.52171875 -135.24632812 41.9184375 -134.50390625 41.296875 C-132.15575871 39.39705052 -129.79607117 37.51185694 -127.4375 35.625 C-127.02113281 35.18027344 -126.60476562 34.73554687 -126.17578125 34.27734375 C-123.79235922 32.01175382 -121.16432891 30.27209445 -118.4375 28.4375 C-117.385625 27.72207031 -116.33375 27.00664062 -115.25 26.26953125 C-112.4375 24.625 -112.4375 24.625 -109.4375 24.625 C-109.4375 23.965 -109.4375 23.305 -109.4375 22.625 C-107.58281184 21.69765592 -105.7277634 20.77102672 -103.87109375 19.84765625 C-102.16953897 18.99278202 -100.47470414 18.12445959 -98.78515625 17.24609375 C-97.90730469 16.79363281 -97.02945313 16.34117188 -96.125 15.875 C-95.30386719 15.44703125 -94.48273438 15.0190625 -93.63671875 14.578125 C-91.4375 13.625 -91.4375 13.625 -88.4375 13.625 C-88.4375 12.965 -88.4375 12.305 -88.4375 11.625 C-87.77363281 11.51542969 -87.10976562 11.40585938 -86.42578125 11.29296875 C-81.38005373 10.3869476 -77.81892085 9.32125898 -73.4375 6.625 C-71.16086201 6.01705799 -68.87704433 5.5504487 -66.56640625 5.08984375 C-64.05204403 4.54083622 -61.81569658 3.60067039 -59.4375 2.625 C-53.82951715 1.03657675 -48.62504655 0.23722145 -42.8125 0 C-41.99910156 -0.03722168 -41.18570313 -0.07444336 -40.34765625 -0.11279297 C-26.90238613 -0.66621171 -13.44203448 -0.61172379 0 0 Z " fill="#000001" transform="translate(196.4375,1.375)"/>
<path d="M0 0 C1.32 0 2.64 0 4 0 C3.22602467 6.70778622 2.14231412 13.34574301 1 20 C2.9789756 16.36383344 3.5251065 13.11574371 4 9 C9.84548979 9.12437212 13.44236538 10.97684832 17.91015625 14.734375 C24.46210136 21.8374183 25.76730604 30.55722832 25.4375 39.92578125 C24.84905659 44.06064703 23.6642466 45.85134493 21 49 C20.855625 49.9075 20.71125 50.815 20.5625 51.75 C20.2840625 52.86375 20.2840625 52.86375 20 54 C17.5 55.125 17.5 55.125 15 56 C14.67 56.99 14.34 57.98 14 59 C10.31613313 61.36323535 7.28035376 63.07400735 3 64 C3.42523816 65.60746056 3.86570126 67.21089836 4.3125 68.8125 C4.55613281 69.70582031 4.79976563 70.59914063 5.05078125 71.51953125 C6.03041456 74.07947838 7.03370661 75.1658944 9 77 C9 77.66 9 78.32 9 79 C9.66 79 10.32 79 11 79 C11.33 80.98 11.66 82.96 12 85 C12.66 85 13.32 85 14 85 C16.84450614 88.71973879 17.3227506 91.37390802 17 96 C18.485 96.495 18.485 96.495 20 97 C22.2825056 100.55802344 24.32359407 103.77246293 25 108 C25.66 108 26.32 108 27 108 C28.68873879 109.64429829 30.35305515 111.31384218 32 113 C36.00348771 116.60913989 39.16830363 116.45033852 44.37890625 116.27734375 C48.50177835 115.8410935 50.55629066 114.60460466 53.296875 111.55859375 C56.79523165 107.12391224 58.49415547 102.39900355 60 97 C62.475 96.505 62.475 96.505 65 96 C65.36254498 106.33924568 65.15329762 116.01937909 62 126 C60 128 60 128 58.12704468 128.24050903 C57.36759552 128.23606781 56.60814636 128.23162659 55.82568359 128.22705078 C54.53457169 128.22682419 54.53457169 128.22682419 53.21737671 128.22659302 C51.8220018 128.21110916 51.8220018 128.21110916 50.3984375 128.1953125 C49.44683746 128.1924826 48.49523743 128.18965271 47.51480103 128.18673706 C44.46807408 128.17551989 41.42163846 128.15041263 38.375 128.125 C36.31250424 128.11497218 34.25000388 128.10584599 32.1875 128.09765625 C27.12488733 128.07557554 22.0624931 128.0410353 17 128 C17 128.66 17 129.32 17 130 C19.97 130.66 22.94 131.32 26 132 C26 133.32 26 134.64 26 136 C15.11971831 136.57042254 15.11971831 136.57042254 11 133 C11 132.34 11 131.68 11 131 C10.26394531 131.03480469 9.52789062 131.06960937 8.76953125 131.10546875 C-1.22689863 131.38278054 -1.22689863 131.38278054 -5 128 C-5 127.34 -5 126.68 -5 126 C-7.31 125.67 -9.62 125.34 -12 125 C-13.38314626 119.61869659 -13.05226482 114.27656857 -12.9609375 108.76953125 C-12.91341626 104.05700841 -13.20675518 99.64791885 -14 95 C-14.66 95 -15.32 95 -16 95 C-16.433125 94.236875 -16.86625 93.47375 -17.3125 92.6875 C-19.25228575 89.59821159 -20.66126273 88.4308874 -24 87 C-26.93503087 86.9247428 -28.39162075 87.4548681 -30.578125 89.4140625 C-31.6322844 90.49380829 -32.66363088 91.59641985 -33.66796875 92.72265625 C-35 94 -35 94 -37 94 C-37 95.32 -37 96.64 -37 98 C-36.34 98 -35.68 98 -35 98 C-34.01 104.93 -33.02 111.86 -32 119 C-28.7 119.66 -25.4 120.32 -22 121 C-21.01 121.99 -21.01 121.99 -20 123 C-20.375 125.625 -20.375 125.625 -21 128 C-21.73637695 127.98428955 -22.47275391 127.9685791 -23.23144531 127.95239258 C-26.57088529 127.88999528 -29.91020255 127.85099382 -33.25 127.8125 C-34.40886719 127.78736328 -35.56773437 127.76222656 -36.76171875 127.73632812 C-37.87675781 127.72666016 -38.99179688 127.71699219 -40.140625 127.70703125 C-41.16704102 127.6913208 -42.19345703 127.67561035 -43.25097656 127.65942383 C-46.39404214 128.04881783 -47.62609493 128.98218069 -50 131 C-53.03668653 131.54532047 -55.94938659 131.44228224 -59 131 C-60.36161311 130.03886134 -61.69855198 129.04115841 -63 128 C-66.66714849 127.74936268 -66.66714849 127.74936268 -70 128 C-70 126.35 -70 124.7 -70 123 C-68.02 122.505 -68.02 122.505 -66 122 C-66.02320312 121.40832031 -66.04640625 120.81664062 -66.0703125 120.20703125 C-66.26447462 111.70550393 -66.26447462 111.70550393 -64 108 C-62.08164896 106.20709971 -60.06728813 104.62743959 -58 103 C-56.56759109 100.13518217 -56.84347417 97.65692102 -56.81054688 94.45483398 C-56.80225357 93.78315186 -56.79396027 93.11146973 -56.78541565 92.41943359 C-56.76800847 90.95984193 -56.75284347 89.50022221 -56.73963928 88.04058647 C-56.71863933 85.73393772 -56.69161599 83.42743042 -56.66296387 81.12086487 C-56.59307441 75.39326989 -56.53365698 69.66557463 -56.47393799 63.93786621 C-56.42308747 59.09770259 -56.36829284 54.25761566 -56.30812073 49.41755867 C-56.28146078 47.13910801 -56.26069984 44.86065054 -56.2401123 42.58213806 C-56.22351659 41.1933457 -56.2066454 39.80455659 -56.18945312 38.41577148 C-56.17066101 36.58948463 -56.17066101 36.58948463 -56.15148926 34.7263031 C-56 32 -56 32 -55 31 C-54.17180686 23.86479759 -55.65300363 17.28326838 -59.09375 11.00390625 C-60.59637722 7.68128658 -60.12024112 4.6072336 -60 1 C-59.34 1 -58.68 1 -58 1 C-57.67 1.66 -57.34 2.32 -57 3 C-49.20383922 3.07586402 -41.40777307 3.12852114 -33.61132812 3.16479492 C-30.95732059 3.17991145 -28.30333814 3.20040495 -25.64941406 3.22631836 C-21.841734 3.26257521 -18.03438325 3.27969763 -14.2265625 3.29296875 C-13.03382721 3.30845261 -11.84109192 3.32393646 -10.61221313 3.33988953 C-8.96072769 3.34022942 -8.96072769 3.34022942 -7.27587891 3.34057617 C-5.8169371 3.35056892 -5.8169371 3.35056892 -4.32852173 3.36076355 C-3.17590347 3.18218559 -3.17590347 3.18218559 -2 3 C-1.34 2.01 -0.68 1.02 0 0 Z " fill="#2E2D2F" transform="translate(187,108)"/>
<path d="M0 0 C0.495 0.99 0.495 0.99 1 2 C0.328125 3.953125 0.328125 3.953125 -0.75 6.25 C-1.306875 7.44689453 -1.306875 7.44689453 -1.875 8.66796875 C-3.22195704 11.46009845 -4.58537045 14.24147237 -6 17 C-6.495 16.01 -6.495 16.01 -7 15 C-9.00819226 14.55947595 -9.00819226 14.55947595 -11.5 14.4375 C-12.96373047 14.32921875 -12.96373047 14.32921875 -14.45703125 14.21875 C-15.62621094 14.1465625 -16.79539063 14.074375 -18 14 C-18.72106934 13.95488281 -19.44213867 13.90976563 -20.18505859 13.86328125 C-25.12254448 13.55656649 -30.06055152 13.27660911 -35 13 C-35 21.58 -35 30.16 -35 39 C-35.66 39 -36.32 39 -37 39 C-36.505 40.98 -36.505 40.98 -36 43 C-35.34 43 -34.68 43 -34 43 C-28.79290602 52.20368271 -28.79290602 52.20368271 -28.5 57.75 C-28.3176145 61.19708593 -27.71389987 62.76271572 -25.375 65.3125 C-24.59125 66.199375 -23.8075 67.08625 -23 68 C-23.1875 70.375 -23.1875 70.375 -24 72 C-25.65 72 -27.3 72 -29 72 C-29.495 73.485 -29.495 73.485 -30 75 C-27.36 74.67 -24.72 74.34 -22 74 C-19 78.75 -19 78.75 -19 81 C-18.01 81.33 -17.02 81.66 -16 82 C-15.28272222 83.64551962 -14.61674772 85.31422289 -14 87 C-13.01 87.99 -13.01 87.99 -12 89 C-11.875 91.625 -11.875 91.625 -12 94 C-12.74765625 93.57847656 -13.4953125 93.15695313 -14.265625 92.72265625 C-15.25046875 92.17480469 -16.2353125 91.62695312 -17.25 91.0625 C-18.71179688 90.24458984 -18.71179688 90.24458984 -20.203125 89.41015625 C-23.46473602 87.66649726 -23.46473602 87.66649726 -27 87 C-29.1631155 88.4128746 -29.1631155 88.4128746 -31.125 90.4375 C-34.81996086 94 -34.81996086 94 -37 94 C-37 95.32 -37 96.64 -37 98 C-36.34 98 -35.68 98 -35 98 C-34.01 104.93 -33.02 111.86 -32 119 C-28.7 119.66 -25.4 120.32 -22 121 C-21.01 121.99 -21.01 121.99 -20 123 C-20.375 125.625 -20.375 125.625 -21 128 C-21.73637695 127.98428955 -22.47275391 127.9685791 -23.23144531 127.95239258 C-26.57088529 127.88999528 -29.91020255 127.85099382 -33.25 127.8125 C-34.40886719 127.78736328 -35.56773437 127.76222656 -36.76171875 127.73632812 C-37.87675781 127.72666016 -38.99179688 127.71699219 -40.140625 127.70703125 C-41.16704102 127.6913208 -42.19345703 127.67561035 -43.25097656 127.65942383 C-46.39404214 128.04881783 -47.62609493 128.98218069 -50 131 C-53.03668653 131.54532047 -55.94938659 131.44228224 -59 131 C-60.36161311 130.03886134 -61.69855198 129.04115841 -63 128 C-66.66714849 127.74936268 -66.66714849 127.74936268 -70 128 C-70 126.35 -70 124.7 -70 123 C-68.02 122.505 -68.02 122.505 -66 122 C-66.02320312 121.40832031 -66.04640625 120.81664062 -66.0703125 120.20703125 C-66.26447462 111.70550393 -66.26447462 111.70550393 -64 108 C-62.08164896 106.20709971 -60.06728813 104.62743959 -58 103 C-56.56759109 100.13518217 -56.84347417 97.65692102 -56.81054688 94.45483398 C-56.80225357 93.78315186 -56.79396027 93.11146973 -56.78541565 92.41943359 C-56.76800847 90.95984193 -56.75284347 89.50022221 -56.73963928 88.04058647 C-56.71863933 85.73393772 -56.69161599 83.42743042 -56.66296387 81.12086487 C-56.59307441 75.39326989 -56.53365698 69.66557463 -56.47393799 63.93786621 C-56.42308747 59.09770259 -56.36829284 54.25761566 -56.30812073 49.41755867 C-56.28146078 47.13910801 -56.26069984 44.86065054 -56.2401123 42.58213806 C-56.22351659 41.1933457 -56.2066454 39.80455659 -56.18945312 38.41577148 C-56.17066101 36.58948463 -56.17066101 36.58948463 -56.15148926 34.7263031 C-56 32 -56 32 -55 31 C-54.17180686 23.86479759 -55.65300363 17.28326838 -59.09375 11.00390625 C-60.59637722 7.68128658 -60.12024112 4.6072336 -60 1 C-59.34 1 -58.68 1 -58 1 C-57.67 1.66 -57.34 2.32 -57 3 C-49.20383922 3.07586402 -41.40777307 3.12852114 -33.61132812 3.16479492 C-30.95732059 3.17991145 -28.30333814 3.20040495 -25.64941406 3.22631836 C-21.841734 3.26257521 -18.03438325 3.27969763 -14.2265625 3.29296875 C-13.03382721 3.30845261 -11.84109192 3.32393646 -10.61221313 3.33988953 C-8.96072769 3.34022942 -8.96072769 3.34022942 -7.27587891 3.34057617 C-5.8169371 3.35056892 -5.8169371 3.35056892 -4.32852173 3.36076355 C-3.17590347 3.18218559 -3.17590347 3.18218559 -2 3 C-1.34 2.01 -0.68 1.02 0 0 Z " fill="#383839" transform="translate(187,108)"/>
<path d="M0 0 C5.84548979 0.12437212 9.44236538 1.97684832 13.91015625 5.734375 C20.46210136 12.8374183 21.76730604 21.55722832 21.4375 30.92578125 C20.84905659 35.06064703 19.6642466 36.85134493 17 40 C16.855625 40.9075 16.71125 41.815 16.5625 42.75 C16.2840625 43.86375 16.2840625 43.86375 16 45 C13.5 46.125 13.5 46.125 11 47 C10.67 47.99 10.34 48.98 10 50 C6.31613313 52.36323535 3.28035376 54.07400735 -1 55 C-0.57476184 56.60746056 -0.13429874 58.21089836 0.3125 59.8125 C0.55613281 60.70582031 0.79976562 61.59914062 1.05078125 62.51953125 C2.03041456 65.07947838 3.03370661 66.1658944 5 68 C5 68.66 5 69.32 5 70 C5.66 70 6.32 70 7 70 C7.33 71.98 7.66 73.96 8 76 C8.66 76 9.32 76 10 76 C12.84450614 79.71973879 13.3227506 82.37390802 13 87 C13.99 87.33 14.98 87.66 16 88 C18.2825056 91.55802344 20.32359407 94.77246293 21 99 C21.66 99 22.32 99 23 99 C24.68873879 100.64429829 26.35305515 102.31384218 28 104 C32.00348771 107.60913989 35.16830363 107.45033852 40.37890625 107.27734375 C44.54067175 106.8369781 46.62796007 105.59333669 49.33203125 102.453125 C52.11217077 98.83173288 53.76378346 95.42977593 55 91 C55.33 90.34 55.66 89.68 56 89 C57.32 89 58.64 89 60 89 C59.85919445 91.77117304 59.71256882 94.54182641 59.5625 97.3125 C59.52318359 98.09818359 59.48386719 98.88386719 59.44335938 99.69335938 C59.40146484 100.45068359 59.35957031 101.20800781 59.31640625 101.98828125 C59.27974854 102.68477783 59.24309082 103.38127441 59.20532227 104.09887695 C59 106 59 106 58 109 C57.34 109 56.68 109 56 109 C56.04125 109.94875 56.0825 110.8975 56.125 111.875 C56 115 56 115 54 117 C50.91475061 117.17553419 47.92035798 117.23122797 44.8359375 117.1953125 C43.47512558 117.19106766 43.47512558 117.19106766 42.08682251 117.18673706 C39.18274877 117.17552153 36.27898088 117.15041463 33.375 117.125 C31.40885861 117.11497197 29.4427124 117.10584581 27.4765625 117.09765625 C22.65092341 117.07557772 17.8255136 117.04103865 13 117 C13 111.39 13 105.78 13 100 C12.34 100 11.68 100 11 100 C10.360625 99.071875 9.72125 98.14375 9.0625 97.1875 C6.56950207 93.9928799 4.34216863 93.33297067 0.4375 92.4375 C-3.11759645 91.60606615 -4.74219972 91.22007341 -7.5625 88.8125 C-8.82785892 86.33679777 -9.45040491 84.42313405 -10.0625 81.75 C-10.5265625 79.89375 -10.5265625 79.89375 -11 78 C-11.99 77.67 -12.98 77.34 -14 77 C-15.16796875 74.56640625 -15.16796875 74.56640625 -16.1875 71.5625 C-16.53167969 70.57378906 -16.87585938 69.58507812 -17.23046875 68.56640625 C-18 66 -18 66 -18 64 C-18.66 64 -19.32 64 -20 64 C-20 62.68 -20 61.36 -20 60 C-19.34 60 -18.68 60 -18 60 C-17.67 57.36 -17.34 54.72 -17 52 C-16.33613281 51.78085938 -15.67226562 51.56171875 -14.98828125 51.3359375 C-8.96925551 49.17436037 -5.54291694 47.37151923 -2 42 C-0.65936685 37.97810055 -0.81582875 34.27337478 -0.8125 30.0625 C-0.79413086 28.84530273 -0.79413086 28.84530273 -0.77539062 27.60351562 C-0.77345703 26.81783203 -0.77152344 26.03214844 -0.76953125 25.22265625 C-0.76542236 24.50859619 -0.76131348 23.79453613 -0.75708008 23.05883789 C-1.0371374 20.68524652 -1.89777689 19.10240874 -3 17 C-3.01171875 14.67578125 -3.01171875 14.67578125 -2.6875 12.3125 C-2.58824219 11.52488281 -2.48898438 10.73726562 -2.38671875 9.92578125 C-2 8 -2 8 -1 7 C-0.63239269 4.67182036 -0.29758419 2.3381615 0 0 Z " fill="#504D51" transform="translate(191,117)"/>
<path d="M0 0 C0.495 0.99 0.495 0.99 1 2 C0.328125 3.953125 0.328125 3.953125 -0.75 6.25 C-1.12125 7.04792969 -1.4925 7.84585938 -1.875 8.66796875 C-3.22195704 11.46009845 -4.58537045 14.24147237 -6 17 C-6.495 16.01 -6.495 16.01 -7 15 C-9.00819226 14.55947595 -9.00819226 14.55947595 -11.5 14.4375 C-12.96373047 14.32921875 -12.96373047 14.32921875 -14.45703125 14.21875 C-15.62621094 14.1465625 -16.79539063 14.074375 -18 14 C-18.72106934 13.95488281 -19.44213867 13.90976563 -20.18505859 13.86328125 C-25.12254448 13.55656649 -30.06055152 13.27660911 -35 13 C-35 21.58 -35 30.16 -35 39 C-35.66 39 -36.32 39 -37 39 C-36.67 40.32 -36.34 41.64 -36 43 C-35.34 43 -34.68 43 -34 43 C-28.79290602 52.20368271 -28.79290602 52.20368271 -28.5 57.75 C-28.3176145 61.19708593 -27.71389987 62.76271572 -25.375 65.3125 C-24.59125 66.199375 -23.8075 67.08625 -23 68 C-23.1875 70.375 -23.1875 70.375 -24 72 C-25.65 72 -27.3 72 -29 72 C-29.33 72.99 -29.66 73.98 -30 75 C-27.36 74.67 -24.72 74.34 -22 74 C-19 78.75 -19 78.75 -19 81 C-18.01 81.33 -17.02 81.66 -16 82 C-15.28272222 83.64551962 -14.61674772 85.31422289 -14 87 C-13.01 87.99 -13.01 87.99 -12 89 C-11.875 91.625 -11.875 91.625 -12 94 C-15.98021881 91.83930979 -18.97250324 89.37349639 -22 86 C-22 85.34 -22 84.68 -22 84 C-22.9075 84.103125 -23.815 84.20625 -24.75 84.3125 C-28 84 -28 84 -30.1875 82.125 C-32.19913534 78.6566632 -33.16845888 75.40677417 -34.21484375 71.55859375 C-35.17457092 68.43112461 -36.55476502 65.70176176 -38.08984375 62.82421875 C-39 61 -39 61 -40.125 57.5625 C-40.71677773 54.84914167 -40.71677773 54.84914167 -43 54 C-43.85416577 51.54483241 -44.47068248 49.05913122 -45.12109375 46.54296875 C-46.04424027 43.87199816 -47.29249081 42.22341437 -49 40 C-49.49246065 38.09581882 -49.97883025 36.18935828 -50.40625 34.26953125 C-51.28977052 30.89239031 -52.65358979 27.74747296 -53.98828125 24.52734375 C-55.24095006 21.39809 -56.28067265 18.22279662 -57.2890625 15.0078125 C-57.95705394 12.95632389 -57.95705394 12.95632389 -59.078125 11.0078125 C-60.6032373 7.68616962 -60.12049135 4.61474045 -60 1 C-59.34 1 -58.68 1 -58 1 C-57.67 1.66 -57.34 2.32 -57 3 C-49.20383922 3.07586402 -41.40777307 3.12852114 -33.61132812 3.16479492 C-30.95732059 3.17991145 -28.30333814 3.20040495 -25.64941406 3.22631836 C-21.841734 3.26257521 -18.03438325 3.27969763 -14.2265625 3.29296875 C-13.03382721 3.30845261 -11.84109192 3.32393646 -10.61221313 3.33988953 C-8.96072769 3.34022942 -8.96072769 3.34022942 -7.27587891 3.34057617 C-5.8169371 3.35056892 -5.8169371 3.35056892 -4.32852173 3.36076355 C-3.56010956 3.24171158 -2.79169739 3.12265961 -2 3 C-1.34 2.01 -0.68 1.02 0 0 Z " fill="#1B1A1C" transform="translate(187,108)"/>
<path d="M0 0 C1.65 0 3.3 0 5 0 C5 0.99 5 1.98 5 3 C5.99 3 6.98 3 8 3 C8.32613281 3.90363281 8.65226563 4.80726563 8.98828125 5.73828125 C9.64376953 7.50751953 9.64376953 7.50751953 10.3125 9.3125 C10.74175781 10.48425781 11.17101562 11.65601563 11.61328125 12.86328125 C12.89094172 15.75331325 13.79724657 16.90528352 16 19 C16.58580372 20.48331951 17.12522409 21.98552754 17.625 23.5 C18.80042167 26.30467411 19.39285347 27.66510116 22.08203125 29.1484375 C23.64692197 29.63114011 25.22628347 30.06928164 26.81640625 30.4609375 C30.92407606 31.47499552 34.31457645 33.74922412 37 37 C37 37.66 37 38.32 37 39 C37.66 39 38.32 39 39 39 C39 44.61 39 50.22 39 56 C52.53 55.67 66.06 55.34 80 55 C80.66 52.69 81.32 50.38 82 48 C82.66 48 83.32 48 84 48 C84.66 41.4 85.32 34.8 86 28 C84.68 27.67 83.36 27.34 82 27 C83.65 26.67 85.3 26.34 87 26 C87.36254498 36.33924568 87.15329762 46.01937909 84 56 C82 58 82 58 80.12704468 58.24050903 C78.98787094 58.2338472 78.98787094 58.2338472 77.82568359 58.22705078 C76.53457169 58.22682419 76.53457169 58.22682419 75.21737671 58.22659302 C73.8220018 58.21110916 73.8220018 58.21110916 72.3984375 58.1953125 C71.44683746 58.1924826 70.49523743 58.18965271 69.51480103 58.18673706 C66.46807408 58.17551989 63.42163846 58.15041263 60.375 58.125 C58.31250424 58.11497218 56.25000388 58.10584599 54.1875 58.09765625 C49.12488733 58.07557554 44.0624931 58.0410353 39 58 C39 58.66 39 59.32 39 60 C41.97 60.66 44.94 61.32 48 62 C48 63.32 48 64.64 48 66 C37.11971831 66.57042254 37.11971831 66.57042254 33 63 C33 62.34 33 61.68 33 61 C32.26394531 61.03480469 31.52789062 61.06960937 30.76953125 61.10546875 C20.77310137 61.38278054 20.77310137 61.38278054 17 58 C17 57.34 17 56.68 17 56 C14.69 55.67 12.38 55.34 10 55 C8.61685374 49.61869659 8.94773518 44.27656857 9.0390625 38.76953125 C9.08658374 34.05700841 8.79324482 29.64791885 8 25 C7.34 25 6.68 25 6 25 C5.67 23.68 5.34 22.36 5 21 C6.32 21.66 7.64 22.32 9 23 C8.42547254 19.06924356 8.42547254 19.06924356 6 16 C5.27884951 14.25064666 4.61936321 12.47542739 4 10.6875 C2.74304132 7.08847378 1.44032952 3.53009332 0 0 Z " fill="#171718" transform="translate(165,178)"/>
<path d="M0 0 C9.65422426 -0.15446759 18.56554888 -0.28219984 28 2 C27.67 3.65 27.34 5.3 27 7 C26.01 7.33 25.02 7.66 24 8 C23.26639432 10.00735831 23.26639432 10.00735831 22.9375 12.375 C22.36829089 15.70351803 21.94048384 17.08927425 20 20 C19.34 20 18.68 20 18 20 C17.97421875 20.66386719 17.9484375 21.32773438 17.921875 22.01171875 C17.56045211 27.63841596 17.06252887 30.8105171 13 35 C12.67 35.99 12.34 36.98 12 38 C11.34 38 10.68 38 10 38 C9.7834375 38.928125 9.7834375 38.928125 9.5625 39.875 C9 42 9 42 8 44 C7.34 44 6.68 44 6 44 C4.23945126 39.35855331 2.53472968 34.72224516 1 30 C0.34 30 -0.32 30 -1 30 C-1.33 28.68 -1.66 27.36 -2 26 C-1.34 26 -0.68 26 0 26 C0 17.42 0 8.84 0 0 Z " fill="#010102" transform="translate(152,121)"/>
<path d="M0 0 C0.66 0 1.32 0 2 0 C4.86401248 4.9191054 7.29650828 9.54882649 9 15 C11.93318808 22.26379124 15.59400596 29.07912083 19.6875 35.75 C21 38 21 38 21.9375 40.5 C22.91362459 43.11933431 22.91362459 43.11933431 24.9375 45.375 C27.30045889 48.38240222 28.60500601 51.48461515 30 55 C30.65624204 56.58768236 31.32326213 58.17094498 32 59.75 C32.309375 60.48734375 32.61875 61.2246875 32.9375 61.984375 C33.9100902 64.07403001 33.9100902 64.07403001 35.64453125 65.62890625 C36.09183594 66.08136719 36.53914063 66.53382813 37 67 C36.6875 69.1875 36.6875 69.1875 36 71 C34.35 71 32.7 71 31 71 C30.67 71.99 30.34 72.98 30 74 C32.64 73.67 35.28 73.34 38 73 C41 77.75 41 77.75 41 80 C41.99 80.33 42.98 80.66 44 81 C44.71727778 82.64551962 45.38325228 84.31422289 46 86 C46.99 86.99 46.99 86.99 48 88 C48.125 90.625 48.125 90.625 48 93 C44.01978119 90.83930979 41.02749676 88.37349639 38 85 C38 84.34 38 83.68 38 83 C37.0925 83.103125 36.185 83.20625 35.25 83.3125 C32 83 32 83 29.8125 81.125 C27.80086466 77.6566632 26.83154112 74.40677417 25.78515625 70.55859375 C24.82542908 67.43112461 23.44523498 64.70176176 21.91015625 61.82421875 C21 60 21 60 19.875 56.5625 C19.28322227 53.84914167 19.28322227 53.84914167 17 53 C16.14583423 50.54483241 15.52931752 48.05913122 14.87890625 45.54296875 C13.95575973 42.87199816 12.70750919 41.22341437 11 39 C10.50753935 37.09581882 10.02116975 35.18935828 9.59375 33.26953125 C8.71022948 29.89239031 7.34641021 26.74747296 6.01171875 23.52734375 C4.75904994 20.39809 3.71932735 17.22279662 2.7109375 14.0078125 C2.04294606 11.95632389 2.04294606 11.95632389 0.921875 10.0078125 C-0.6032373 6.68616962 -0.12049135 3.61474045 0 0 Z " fill="#4F4E4F" transform="translate(127,109)"/>
<path d="M0 0 C3.18728131 1.59364066 3.86773109 4.79292482 5 8 C5.37360232 9.43257167 5.72825318 10.87023812 6.0625 12.3125 C6.6677526 16.00846953 6.6677526 16.00846953 9 18 C9.6328125 20.3828125 9.6328125 20.3828125 10.125 23.125 C10.29257813 24.03507812 10.46015625 24.94515625 10.6328125 25.8828125 C10.75398437 26.58148438 10.87515625 27.28015625 11 28 C11.99 28.33 12.98 28.66 14 29 C15.28125 31.66015625 15.28125 31.66015625 16.5 35.0625 C16.93054688 36.24070313 17.36109375 37.41890625 17.8046875 38.6328125 C18.39636719 40.29957031 18.39636719 40.29957031 19 42 C19.97347005 44.67919633 20.97339221 47.34015256 22 50 C22.4125 51.11375 22.825 52.2275 23.25 53.375 C24.87116537 56.36204916 24.87116537 56.36204916 28.6875 57.375 C29.780625 57.58125 30.87375 57.7875 32 58 C32 58.66 32 59.32 32 60 C33.32 60.66 34.64 61.32 36 62 C36 62.99 36 63.98 36 65 C35.113125 64.319375 34.22625 63.63875 33.3125 62.9375 C30.27867794 60.82130859 30.27867794 60.82130859 27.5 60.875 C24.38751449 62.27561848 22.58489587 64.19635687 20.33203125 66.72265625 C19 68 19 68 17 68 C17 69.32 17 70.64 17 72 C17.66 72 18.32 72 19 72 C20.485 82.395 20.485 82.395 22 93 C25.3 93.66 28.6 94.32 32 95 C32.99 95.99 32.99 95.99 34 97 C33.625 99.625 33.625 99.625 33 102 C29.58340509 102.05816623 26.16693795 102.09365195 22.75 102.125 C21.29787109 102.15013672 21.29787109 102.15013672 19.81640625 102.17578125 C18.41455078 102.18544922 18.41455078 102.18544922 16.984375 102.1953125 C16.12553711 102.20578613 15.26669922 102.21625977 14.38183594 102.22705078 C11.82096404 101.98293323 10.20488971 101.28990512 8 100 C8.64710938 99.47792969 9.29421875 98.95585937 9.9609375 98.41796875 C12.60192041 95.28622847 12.52529042 93.35980238 12.625 89.3125 C12.68593646 87.20550472 12.79518391 85.09790198 13 83 C13.99 82.505 13.99 82.505 15 82 C15 87.94 15 93.88 15 100 C20.28 100 25.56 100 31 100 C31 99.01 31 98.02 31 97 C29.6696875 96.814375 29.6696875 96.814375 28.3125 96.625 C25.23184589 96.04374451 22.75300579 95.49448886 20 94 C18.38480685 89.58928025 18.62641464 84.63555952 18.37890625 79.99609375 C18.20379872 76.82261631 18.20379872 76.82261631 16 74 C15.5625 70.5625 15.5625 70.5625 16 67 C18.4375 64.875 18.4375 64.875 21 63 C21.87943404 60.36539052 21.87943404 60.36539052 22 58 C20.68 57.34 19.36 56.68 18 56 C17.87367188 56.56589844 17.74734375 57.13179687 17.6171875 57.71484375 C16.96927761 60.11375061 16.11886681 62.2858516 15.125 64.5625 C14.79757813 65.32691406 14.47015625 66.09132813 14.1328125 66.87890625 C12.99176367 69.01542181 11.79567741 70.39415134 10 72 C10.31707438 65.44712946 11.62488545 61.12236281 14.94140625 55.45703125 C16.28184437 52.34582985 16.39489847 50.36725257 16 47 C14.57102268 43.78190989 14.57102268 43.78190989 12.625 40.625 C9.80270177 35.63780634 8.15174776 31.56678086 7 26 C6.01488198 23.6603447 5.01529541 21.32671865 4 19 C3.62764751 17.71345796 3.27289089 16.42166872 2.9375 15.125 C2.628125 14.09375 2.31875 13.0625 2 12 C1.34 11.67 0.68 11.34 0 11 C0 31.46 0 51.92 0 73 C2.97 73 5.94 73 9 73 C9 73.99 9 74.98 9 76 C5.04 76 1.08 76 -3 76 C-2.91550799 66.97661146 -2.82059041 57.95340966 -2.71247292 48.93027306 C-2.6625913 44.74016995 -2.61626073 40.55009106 -2.578125 36.35986328 C-2.54116917 32.31378212 -2.49478166 28.26790766 -2.44193649 24.22200394 C-2.42344714 22.68073793 -2.40831915 21.13942771 -2.39665604 19.59809494 C-2.37969961 17.43416057 -2.35064329 15.27069396 -2.31884766 13.10693359 C-2.30552399 11.87671478 -2.29220032 10.64649597 -2.2784729 9.3789978 C-1.99644112 5.95681641 -1.22538814 3.19554823 0 0 Z " fill="#1A191B" transform="translate(133,134)"/>
<path d="M0 0 C0.99 0.33 1.98 0.66 3 1 C3.84375 3.328125 3.84375 3.328125 4.5 6.25 C5.51756736 10.38952795 6.74804238 13.37728556 9 17 C9.42472085 18.89490839 9.84845076 20.79006089 10.26171875 22.6875 C11.49030901 26.53578271 13.65530901 29.85866207 15.7578125 33.2890625 C17.24208268 36.5283188 17.41368269 38.4677863 17 42 C15.79296875 44.96484375 15.79296875 44.96484375 14.1875 47.9375 C12.40360873 51.32016176 10.64839158 54.65214238 9.1875 58.1875 C8 61 8 61 7 62 C4.69 62 2.38 62 0 62 C0 41.54 0 21.08 0 0 Z " fill="#4F4D51" transform="translate(133,145)"/>
<path d="M0 0 C1.8125 0.1875 1.8125 0.1875 4 1 C4.37125 1.825 4.7425 2.65 5.125 3.5 C6.71170889 6.20279582 6.71170889 6.20279582 9.19921875 6.41015625 C10.96476489 6.51308046 12.73039296 6.61460746 14.49609375 6.71484375 C19.59288158 7.29528917 22.18999456 10.04078303 25.375 13.8125 C27.99754863 18.66474585 27.03873454 24.35767838 26.65234375 29.671875 C26.62098928 33.14544216 26.62098928 33.14544216 29.328125 34.91015625 C31.90457035 35.96107475 34.24958355 36.60708336 37 37 C37 37.66 37 38.32 37 39 C29.7312469 39.49279682 29.7312469 39.49279682 26.125 37.0625 C25.42375 36.381875 24.7225 35.70125 24 35 C21.58889191 33.79444595 19.68307986 33.71839022 17 33.5 C12.22222222 33.11111111 12.22222222 33.11111111 10 32 C10 31.34 10 30.68 10 30 C12.31 30 14.62 30 17 30 C16.67 27.69 16.34 25.38 16 23 C15.34 23 14.68 23 14 23 C13.67 21.02 13.34 19.04 13 17 C12.34 17 11.68 17 11 17 C11 15.35 11 13.7 11 12 C9.35 12.33 7.7 12.66 6 13 C6.30924214 15.10464793 6.6225056 17.2087053 6.9375 19.3125 C7.11152344 20.48425781 7.28554687 21.65601563 7.46484375 22.86328125 C7.92093031 26.01641403 7.92093031 26.01641403 9 29 C6.69 28.67 4.38 28.34 2 28 C0.72241792 24.12732932 0.92936052 20.27273265 1 16.25 C1.05479034 10.74108078 0.90675376 5.44052255 0 0 Z " fill="#2F2F2F" transform="translate(175,204)"/>
<path d="M0 0 C2.4375 1.3125 2.4375 1.3125 4 4 C4.61549822 7.77428155 4.66556836 11.23031031 4 15 C1.625 18.0625 1.625 18.0625 -1 20 C-1.66 20.66 -2.32 21.32 -3 22 C-5.3828125 21.9765625 -5.3828125 21.9765625 -8.125 21.625 C-9.03507813 21.51414063 -9.94515625 21.40328125 -10.8828125 21.2890625 C-11.58148438 21.19367188 -12.28015625 21.09828125 -13 21 C-12.67 21.66 -12.34 22.32 -12 23 C-11.24074219 23 -10.48148438 23 -9.69921875 23 C-5.79947917 23 -1.89973958 23 2 23 C-0.64879133 25.76395617 -2.80286289 26.26536496 -6.5 26.375 C-10.40425963 26.26054288 -11.95339413 25.43728469 -15 23 C-18.66714849 22.74936268 -18.66714849 22.74936268 -22 23 C-22 21.35 -22 19.7 -22 18 C-20.68 17.67 -19.36 17.34 -18 17 C-18.02320312 16.40832031 -18.04640625 15.81664062 -18.0703125 15.20703125 C-18.25744644 7.01323811 -18.25744644 7.01323811 -16 3 C-15.34 2.67 -14.68 2.34 -14 2 C-14.33 2.94875 -14.66 3.8975 -15 4.875 C-16.3644458 9.55447256 -16.17499341 14.16823759 -16 19 C-15.34 19 -14.68 19 -14 19 C-14.11859375 18.43152344 -14.2371875 17.86304688 -14.359375 17.27734375 C-15.06488229 13.05135509 -15.42612879 9.96571847 -13.3125 6.125 C-9.30495202 0.70939462 -6.93411943 -0.86676493 0 0 Z " fill="#222222" transform="translate(139,213)"/>
<path d="M0 0 C15.51 0 31.02 0 47 0 C46 6 46 6 45 9 C42.0625 8.625 42.0625 8.625 39 8 C38.505 7.01 38.505 7.01 38 6 C30.74 6 23.48 6 16 6 C15.67 11.94 15.34 17.88 15 24 C14.01 24.33 13.02 24.66 12 25 C11.32591692 23.73308493 10.66099503 22.46129251 10 21.1875 C9.443125 20.12595703 9.443125 20.12595703 8.875 19.04296875 C8 17 8 17 8 14 C7.01 13.67 6.02 13.34 5 13 C4.12109375 11.1875 4.12109375 11.1875 3.4375 9 C2.79318716 6.85458962 2.79318716 6.85458962 2 5 C1.34 4.67 0.68 4.34 0 4 C0 2.68 0 1.36 0 0 Z " fill="#4A494C" transform="translate(135,113)"/>
<path d="M0 0 C0.33 0 0.66 0 1 0 C1.08333357 4.8333472 0.95261487 9.23692563 0 14 C-0.99 14 -1.98 14 -3 14 C-3.13277344 15.05960938 -3.26554687 16.11921875 -3.40234375 17.2109375 C-3.58053875 18.59898279 -3.7589346 19.98700231 -3.9375 21.375 C-4.02451172 22.07367188 -4.11152344 22.77234375 -4.20117188 23.4921875 C-4.88671875 28.7734375 -4.88671875 28.7734375 -6 31 C-6.66 31 -7.32 31 -8 31 C-7.938125 31.825 -7.87625 32.65 -7.8125 33.5 C-8.04724662 37.88193696 -9.32618654 40.95495082 -11 45 C-11.66 45 -12.32 45 -13 45 C-13.99 48.96 -14.98 52.92 -16 57 C-16.99 57 -17.98 57 -19 57 C-21.98751866 51.3455119 -23.7707177 47.45047163 -22 41 C-20.52459016 37.26229508 -20.52459016 37.26229508 -18 36 C-16.94408519 33.95510096 -16.94408519 33.95510096 -16 31.5625 C-14.85290233 28.77093027 -14.15381334 27.15381334 -12 25 C-11.27500675 22.87316434 -10.61666426 20.72323375 -10 18.5625 C-8.94419236 14.8712975 -8.13741033 12.2061155 -6 9 C-5.34 9 -4.68 9 -4 9 C-3.71125 8.071875 -3.4225 7.14375 -3.125 6.1875 C-2 3 -2 3 0 0 Z " fill="#504E52" transform="translate(185,120)"/>
<path d="M0 0 C0.99 0 1.98 0 3 0 C6.16882522 6.61650706 6.31442744 15.45279156 4.27734375 22.5 C2.72589501 25.51496111 1.46918189 26.84005163 -1.75 27.9375 C-2.4925 27.958125 -3.235 27.97875 -4 28 C-4.33 28.99 -4.66 29.98 -5 31 C-6.98 31.33 -8.96 31.66 -11 32 C-10.40984815 26.49191603 -9.43336231 21.35121931 -8 16 C-7.34 16 -6.68 16 -6 16 C-5.87882813 15.28972656 -5.75765625 14.57945312 -5.6328125 13.84765625 C-5.46523437 12.92855469 -5.29765625 12.00945312 -5.125 11.0625 C-4.96257812 10.14597656 -4.80015625 9.22945312 -4.6328125 8.28515625 C-4.42398438 7.53105469 -4.21515625 6.77695313 -4 6 C-3.34 5.67 -2.68 5.34 -2 5 C-1.27840576 3.35636866 -0.60648579 1.68949614 0 0 Z " fill="#050506" transform="translate(185,135)"/>
<path d="M0 0 C1.32 0 2.64 0 4 0 C4.36254498 10.33924568 4.15329762 20.01937909 1 30 C-1 32 -1 32 -2.87295532 32.24050903 C-4.01212906 32.2338472 -4.01212906 32.2338472 -5.17431641 32.22705078 C-6.46542831 32.22682419 -6.46542831 32.22682419 -7.78262329 32.22659302 C-8.71287323 32.21627045 -9.64312317 32.20594788 -10.6015625 32.1953125 C-11.55316254 32.1924826 -12.50476257 32.18965271 -13.48519897 32.18673706 C-16.53192592 32.17551989 -19.57836154 32.15041263 -22.625 32.125 C-24.68749576 32.11497218 -26.74999612 32.10584599 -28.8125 32.09765625 C-33.87511267 32.07557554 -38.9375069 32.0410353 -44 32 C-44 32.66 -44 33.32 -44 34 C-41.03 34.66 -38.06 35.32 -35 36 C-35 37.32 -35 38.64 -35 40 C-38.3 40 -41.6 40 -45 40 C-45.33 39.34 -45.66 38.68 -46 38 C-42.7 38.33 -39.4 38.66 -36 39 C-36 38.34 -36 37.68 -36 37 C-36.70125 37.0825 -37.4025 37.165 -38.125 37.25 C-42.11594678 36.90296115 -43.98114356 35.60548606 -47 33 C-47.41015625 29.609375 -47.41015625 29.609375 -47.0625 25.75 C-46.74461334 20.02596687 -47.12548056 16.15789291 -50.515625 11.41796875 C-53.74219664 8.33574373 -56.889741 7.71923097 -61.25 7.375 C-62.14203125 7.30023438 -63.0340625 7.22546875 -63.953125 7.1484375 C-64.96632812 7.07496094 -64.96632812 7.07496094 -66 7 C-66 6.67 -66 6.34 -66 6 C-64.10688117 5.74939575 -62.21022961 5.52539367 -60.3125 5.3125 C-59.25675781 5.18488281 -58.20101562 5.05726563 -57.11328125 4.92578125 C-52.75543413 5.0296697 -50.40859794 6.78569143 -47.1875 9.5625 C-46 11 -46 11 -46 13 C-45.34 13 -44.68 13 -44 13 C-44 18.61 -44 24.22 -44 30 C-30.47 29.67 -16.94 29.34 -3 29 C-2.34 26.69 -1.68 24.38 -1 22 C-0.34 22 0.32 22 1 22 C1.66 15.4 2.32 8.8 3 2 C1.68 1.67 0.36 1.34 -1 1 C-0.67 0.67 -0.34 0.34 0 0 Z " fill="#1F1E20" transform="translate(248,204)"/>
<path d="M0 0 C0.99 0.33 1.98 0.66 3 1 C3.33 2.98 3.66 4.96 4 7 C2.02 7 0.04 7 -2 7 C-2.33 7.99 -2.66 8.98 -3 10 C-0.36 9.67 2.28 9.34 5 9 C8 13.75 8 13.75 8 16 C8.99 16.33 9.98 16.66 11 17 C11.71727778 18.64551962 12.38325228 20.31422289 13 22 C13.66 22.66 14.32 23.32 15 24 C15.125 26.625 15.125 26.625 15 29 C11.01978119 26.83930979 8.02749676 24.37349639 5 21 C5 20.34 5 19.68 5 19 C4.0925 19.103125 3.185 19.20625 2.25 19.3125 C-1 19 -1 19 -3.25 17 C-5.39646321 13.32034878 -6.15266756 10.16605118 -7 6 C-4.34771188 4.92474806 -1.71631546 3.90543849 1 3 C0.67 2.01 0.34 1.02 0 0 Z " fill="#515152" transform="translate(160,173)"/>
<path d="M0 0 C2 1 2 1 2.78125 2.8125 C3.26041667 4.27083333 3.73958333 5.72916667 4.21875 7.1875 C4.85329445 9.19512796 4.85329445 9.19512796 7 10 C8.0703125 11.99609375 8.0703125 11.99609375 9.125 14.4375 C9.47820312 15.24058594 9.83140625 16.04367188 10.1953125 16.87109375 C11 19 11 19 11 21 C11.66 20.67 12.32 20.34 13 20 C13.09087891 18.06833984 13.09087891 18.06833984 13.18359375 16.09765625 C13.26798247 14.41925841 13.3526313 12.74087364 13.4375 11.0625 C13.49647461 9.78729492 13.49647461 9.78729492 13.55664062 8.48632812 C13.59853516 7.67744141 13.64042969 6.86855469 13.68359375 6.03515625 C13.72025146 5.2862915 13.75690918 4.53742676 13.79467773 3.76586914 C14 2 14 2 15 1 C16.63472882 0.91299658 18.27314055 0.89298937 19.91015625 0.90234375 C21.39418945 0.90717773 21.39418945 0.90717773 22.90820312 0.91210938 C23.94912109 0.92048828 24.99003906 0.92886719 26.0625 0.9375 C27.62967773 0.94426758 27.62967773 0.94426758 29.22851562 0.95117188 C31.8190666 0.96300087 34.40950559 0.97948311 37 1 C37.495 1.99 37.495 1.99 38 3 C30.74 3 23.48 3 16 3 C15.67 11.25 15.34 19.5 15 28 C14.34 28 13.68 28 13 28 C12.34 28.66 11.68 29.32 11 30 C7.81897457 24.76121925 4.89928252 19.39840366 2 14 C1.566875 13.21238281 1.13375 12.42476562 0.6875 11.61328125 C-0.28732489 9.78209977 -1.15433237 7.8942955 -2 6 C-1 3 -1 3 0 2 C0 1.34 0 0.68 0 0 Z " fill="#343434" transform="translate(136,117)"/>
<path d="M0 0 C0.99 0 1.98 0 3 0 C2.53530656 4.25968987 1.95551722 8.29065011 0.875 12.4375 C-0.27252244 17.38726098 -0.67704541 23.19638973 2.0234375 27.7109375 C3.5666799 31.32829768 3.36867797 34.92128989 3.375 38.8125 C3.39949219 39.59431641 3.42398438 40.37613281 3.44921875 41.18164062 C3.48397677 48.11586477 1.50746064 52.28358431 -3.25 57.4375 C-3.8275 57.953125 -4.405 58.46875 -5 59 C-5.66 58.67 -6.32 58.34 -7 58 C-6.50628906 57.45730469 -6.01257813 56.91460937 -5.50390625 56.35546875 C-4.54291016 55.28232422 -4.54291016 55.28232422 -3.5625 54.1875 C-2.92441406 53.47980469 -2.28632813 52.77210938 -1.62890625 52.04296875 C1.48648396 48.13565681 1.13448022 44.45043335 1.125 39.625 C1.12757813 38.31789062 1.13015625 37.01078125 1.1328125 35.6640625 C1.0224678 32.61984687 0.71706674 29.94794102 0 27 C-0.99 27.33 -1.98 27.66 -3 28 C-4.21869929 30.50447516 -4.21869929 30.50447516 -5 33 C-5.66 33 -6.32 33 -7 33 C-7.33 33.99 -7.66 34.98 -8 36 C-7.125 28.25 -7.125 28.25 -6 26 C-5.01 26 -4.02 26 -3 26 C-3 22.04 -3 18.08 -3 14 C-4.32 16.31 -5.64 18.62 -7 21 C-7.92101016 18.50653347 -8.17516001 17.40870668 -7.109375 14.921875 C-6.66078125 14.20515625 -6.2121875 13.4884375 -5.75 12.75 C-3.27855738 8.5988025 -1.57593454 4.56191578 0 0 Z " fill="#2C2A2D" transform="translate(188,108)"/>
<path d="M0 0 C0.66 0.33 1.32 0.66 2 1 C0.37660195 2.70884005 -1.29319053 4.37446717 -3 6 C-3.66 6 -4.32 6 -5 6 C-5 7.32 -5 8.64 -5 10 C-4.34 10 -3.68 10 -3 10 C-2.01 16.93 -1.02 23.86 0 31 C3.3 31.66 6.6 32.32 10 33 C10.66 33.66 11.32 34.32 12 35 C11.625 37.625 11.625 37.625 11 40 C7.58340509 40.05816623 4.16693795 40.09365195 0.75 40.125 C-0.70212891 40.15013672 -0.70212891 40.15013672 -2.18359375 40.17578125 C-3.58544922 40.18544922 -3.58544922 40.18544922 -5.015625 40.1953125 C-5.87446289 40.20578613 -6.73330078 40.21625977 -7.61816406 40.22705078 C-10.17903596 39.98293323 -11.79511029 39.28990512 -14 38 C-13.02933594 37.21689453 -13.02933594 37.21689453 -12.0390625 36.41796875 C-9.39807959 33.28622847 -9.47470958 31.35980238 -9.375 27.3125 C-9.31406354 25.20550472 -9.20481609 23.09790198 -9 21 C-8.34 20.67 -7.68 20.34 -7 20 C-7 25.94 -7 31.88 -7 38 C-1.72 38 3.56 38 9 38 C9 37.01 9 36.02 9 35 C7.6696875 34.814375 7.6696875 34.814375 6.3125 34.625 C3.23184589 34.04374451 0.75300579 33.49448886 -2 32 C-3.61519315 27.58928025 -3.37358536 22.63555952 -3.62109375 17.99609375 C-3.79620128 14.82261631 -3.79620128 14.82261631 -6 12 C-6.5 8.625 -6.5 8.625 -6 5 C-4.17633295 2.87415556 -2.33931992 1.60828244 0 0 Z " fill="#252324" transform="translate(155,196)"/>
<path d="M0 0 C2.625 0.25 2.625 0.25 4.4375 1.375 C6.2208666 4.190842 6.07527801 5.96940309 5.625 9.25 C4.0625 12.5625 4.0625 12.5625 1.625 15.25 C-4.30681818 16.78409091 -4.30681818 16.78409091 -7.375 15.25 C-7.0625 13.3125 -7.0625 13.3125 -6.375 11.25 C-5.385 10.92 -4.395 10.59 -3.375 10.25 C-3.38660156 9.61191406 -3.39820313 8.97382813 -3.41015625 8.31640625 C-3.42369141 7.07697266 -3.42369141 7.07697266 -3.4375 5.8125 C-3.44910156 4.98878906 -3.46070313 4.16507813 -3.47265625 3.31640625 C-3.33140722 0.32757683 -2.97825954 0.313501 0 0 Z " fill="#4A4A4B" transform="translate(135.375,215.75)"/>
<path d="M0 0 C0.495 0.99 0.495 0.99 1 2 C-19.79 2 -40.58 2 -62 2 C-59.03901788 -0.96098212 -55.73566869 -0.47250346 -51.75 -0.625 C-50.90953125 -0.66222168 -50.0690625 -0.69944336 -49.203125 -0.73779297 C-32.76832682 -1.39337223 -16.40841783 -1.06105242 0 0 Z " fill="#797979" transform="translate(205,2)"/>
<path d="M0 0 C1.75 0.125 1.75 0.125 4 1 C6.125 3.9375 6.125 3.9375 8 7 C8.66 7.66 9.32 8.32 10 9 C9.35546875 9.36738281 8.7109375 9.73476562 8.046875 10.11328125 C5.24445365 12.69642918 5.41106993 14.44262411 5.25 18.1875 C5.19328125 19.27417969 5.1365625 20.36085937 5.078125 21.48046875 C5.05234375 22.31191406 5.0265625 23.14335937 5 24 C5.66 24 6.32 24 7 24 C7.66 25.65 8.32 27.3 9 29 C6.69 28.67 4.38 28.34 2 28 C0.72241792 24.12732932 0.92936052 20.27273265 1 16.25 C1.05479034 10.74108078 0.90675376 5.44052255 0 0 Z " fill="#4A4A4A" transform="translate(175,204)"/>
<path d="M0 0 C4.11242617 4.11242617 4.31383614 9.42185596 4.375 15 C4.30713557 20.8671886 3.73162523 23.58989745 0 28 C-0.144375 28.9075 -0.28875 29.815 -0.4375 30.75 C-0.623125 31.4925 -0.80875 32.235 -1 33 C-3.5 34.125 -3.5 34.125 -6 35 C-6.33 35.99 -6.66 36.98 -7 38 C-10.55802344 40.2825056 -13.77246293 42.32359407 -18 43 C-17.67 44.98 -17.34 46.96 -17 49 C-17.99 48.67 -18.98 48.34 -20 48 C-20.33 46.02 -20.66 44.04 -21 42 C-19.3970947 41.18501438 -17.79262722 40.37310073 -16.1875 39.5625 C-14.84751953 38.88380859 -14.84751953 38.88380859 -13.48046875 38.19140625 C-11 37 -11 37 -8 36 C-6.66172696 34.33729713 -5.32810215 32.67083819 -4 31 C-3.34 31 -2.68 31 -2 31 C-1.87625 30.113125 -1.7525 29.22625 -1.625 28.3125 C-1 25 -1 25 0.02734375 22.62109375 C2.60403913 15.67746885 0.94303188 7.1906181 0 0 Z " fill="#373638" transform="translate(208,129)"/>
<path d="M0 0 C0.66 0.33 1.32 0.66 2 1 C2.6328125 3.28515625 2.6328125 3.28515625 3.125 6.0625 C3.29257813 6.98160156 3.46015625 7.90070313 3.6328125 8.84765625 C3.75398437 9.55792969 3.87515625 10.26820313 4 11 C4.99 11.33 5.98 11.66 7 12 C8.38671875 14.8359375 8.38671875 14.8359375 9.6875 18.375 C10.12449219 19.53773438 10.56148437 20.70046875 11.01171875 21.8984375 C12 25 12 25 12 28 C11.34 27.67 10.68 27.34 10 27 C10 26.01 10 25.02 10 24 C9.67 25.65 9.34 27.3 9 29 C3.71641288 23.71641288 1.56801778 16.11638837 0 9 C-0.63028587 7.31923769 -1.28050817 5.64455275 -2 4 C-1.01 4.495 -1.01 4.495 0 5 C0 3.35 0 1.7 0 0 Z " fill="#2F2E32" transform="translate(140,151)"/>
<path d="M0 0 C0.99 0 1.98 0 3 0 C3 0.66 3 1.32 3 2 C2.34 2 1.68 2 1 2 C2.09978501 8.74129319 2.09978501 8.74129319 4.5625 15.0625 C6.47817192 18.97713393 6.722436 22.69297245 7 27 C6.34 27 5.68 27 5 27 C4.79503906 26.24074219 4.59007812 25.48148438 4.37890625 24.69921875 C4.10949219 23.70535156 3.84007812 22.71148437 3.5625 21.6875 C3.29566406 20.70136719 3.02882812 19.71523437 2.75390625 18.69921875 C2.21920575 16.78482474 1.62855462 14.88566385 1 13 C-0.98567708 12.8046875 -2.97135417 12.609375 -4.95703125 12.4140625 C-7 12 -7 12 -10 10 C-9.67 8.35 -9.34 6.7 -9 5 C-6.03 5 -3.06 5 0 5 C0 3.35 0 1.7 0 0 Z " fill="#1B1A1B" transform="translate(126,107)"/>
<path d="M0 0 C0.33 0 0.66 0 1 0 C1.12117187 0.90363281 1.24234375 1.80726563 1.3671875 2.73828125 C1.53476563 3.91777344 1.70234375 5.09726563 1.875 6.3125 C2.03742188 7.48425781 2.19984375 8.65601563 2.3671875 9.86328125 C2.82300621 13.14530895 2.82300621 13.14530895 5 16 C7.40972598 17.01324326 7.40972598 17.01324326 10.125 17.6875 C11.03507813 17.93886719 11.94515625 18.19023437 12.8828125 18.44921875 C13.58148438 18.63097656 14.28015625 18.81273437 15 19 C15 19.99 15 20.98 15 22 C9.72 22 4.44 22 -1 22 C-0.67 14.74 -0.34 7.48 0 0 Z " fill="#474647" transform="translate(149,212)"/>
<path d="M0 0 C2.125 2.5625 2.125 2.5625 2.125 4.5625 C2.785 4.5625 3.445 4.5625 4.125 4.5625 C4.125 10.1725 4.125 15.7825 4.125 21.5625 C3.465 21.5625 2.805 21.5625 2.125 21.5625 C1.795 22.5525 1.465 23.5425 1.125 24.5625 C1.18300781 23.5725 1.24101562 22.5825 1.30078125 21.5625 C1.58421593 14.65071791 1.79848097 8.83745951 -2.390625 2.98046875 C-5.61719664 -0.10175627 -8.764741 -0.71826903 -13.125 -1.0625 C-14.01703125 -1.13726562 -14.9090625 -1.21203125 -15.828125 -1.2890625 C-16.84132812 -1.36253906 -16.84132812 -1.36253906 -17.875 -1.4375 C-17.875 -1.7675 -17.875 -2.0975 -17.875 -2.4375 C-5.0585443 -4.28876582 -5.0585443 -4.28876582 0 0 Z " fill="#222123" transform="translate(199.875,212.4375)"/>
<path d="M0 0 C0 1.65 0 3.3 0 5 C0.66 5 1.32 5 2 5 C3.17571451 8.67410785 3.07366746 12.16929183 3 16 C1.68 16 0.36 16 -1 16 C-4.24669632 12.48274565 -5.25 9.80390242 -5.25 5.125 C-5.18641991 3.74894513 -5.10985087 2.37313591 -5 1 C-2 0 -2 0 0 0 Z " fill="#060606" transform="translate(186,216)"/>
<path d="M0 0 C2 2 2 2 2 5 C2.99 5.33 3.98 5.66 5 6 C6.74672985 9.4934597 8 12.06845568 8 16 C8.99 16.33 9.98 16.66 11 17 C12.38671875 19.28515625 12.38671875 19.28515625 13.6875 22.0625 C14.34298828 23.44115234 14.34298828 23.44115234 15.01171875 24.84765625 C15.33785156 25.55792969 15.66398437 26.26820312 16 27 C14.68 27.33 13.36 27.66 12 28 C11.73445313 27.44570312 11.46890625 26.89140625 11.1953125 26.3203125 C10.84210938 25.59585938 10.48890625 24.87140625 10.125 24.125 C9.77695312 23.40570313 9.42890625 22.68640625 9.0703125 21.9453125 C8.03442457 19.84864981 8.03442457 19.84864981 6 18 C5.71125 17.071875 5.4225 16.14375 5.125 15.1875 C4.19083329 11.91642109 4.19083329 11.91642109 1.875 9.5625 C-0.55842607 6.23681771 -0.31565424 4.02459154 0 0 Z " fill="#343434" transform="translate(316,74)"/>
<path d="M0 0 C0.33 0 0.66 0 1 0 C1.04125 1.0725 1.0825 2.145 1.125 3.25 C1.65189042 7.17027428 1.65189042 7.17027428 4.75 9.375 C7.62271504 10.81135752 9.83448947 11.627587 13 12 C13 12.66 13 13.32 13 14 C5.7312469 14.49279682 5.7312469 14.49279682 2.125 12.0625 C1.42375 11.381875 0.7225 10.70125 0 10 C-2.41110809 8.79444595 -4.31692014 8.71839022 -7 8.5 C-11.77777778 8.11111111 -11.77777778 8.11111111 -14 7 C-14 6.34 -14 5.68 -14 5 C-12.7625 5.04125 -11.525 5.0825 -10.25 5.125 C-6.98573079 5.11923274 -4.71316607 4.98269829 -2 3 C-1.34 2.01 -0.68 1.02 0 0 Z " fill="#494949" transform="translate(199,229)"/>
<path d="M0 0 C-0.1875 1.8671875 -0.1875 1.8671875 -1 4 C-3.25 5.1953125 -3.25 5.1953125 -6 6.125 C-9.76393192 7.15532298 -9.76393192 7.15532298 -12 10 C-16.57422734 13.04948489 -19.35966195 14.55027688 -25 14 C-21.82679218 10.46413986 -19.83256305 8.41421969 -15 8 C-15 7.34 -15 6.68 -15 6 C-12.33333333 4.66666667 -9.66666667 3.33333333 -7 2 C-6.31421875 1.62617188 -5.6284375 1.25234375 -4.921875 0.8671875 C-3 0 -3 0 0 0 Z " fill="#424244" transform="translate(102,18)"/>
<path d="M0 0 C0.99 0.33 1.98 0.66 3 1 C3 1.66 3 2.32 3 3 C2.34 3 1.68 3 1 3 C1 23.46 1 43.92 1 65 C3.31 65 5.62 65 8 65 C7.505 65.99 7.505 65.99 7 67 C4.69 67 2.38 67 0 67 C0 44.89 0 22.78 0 0 Z " fill="#2E2C2F" transform="translate(132,142)"/>
<path d="M0 0 C0 0.33 0 0.66 0 1 C-1.65 1 -3.3 1 -5 1 C-5 1.66 -5 2.32 -5 3 C-5.886875 3.226875 -6.77375 3.45375 -7.6875 3.6875 C-11.5820726 5.23063254 -13.43090159 6.69687348 -16 10 C-16.93562162 14.03037006 -17.12505696 17.87312016 -17 22 C-17.66 22 -18.32 22 -19 22 C-20.6270583 17.1188251 -20.41143185 13.25594987 -18.8125 8.375 C-14.01240204 -0.56311345 -9.55572604 -0.68581766 0 0 Z " fill="#313132" transform="translate(142,210)"/>
<path d="M0 0 C1.70884005 1.62339805 3.37446717 3.29319053 5 5 C5 5.66 5 6.32 5 7 C5.66 7 6.32 7 7 7 C7.33 8.98 7.66 10.96 8 13 C8.66 13 9.32 13 10 13 C12.84450614 16.71973879 13.3227506 19.37390802 13 24 C13.99 24.33 14.98 24.66 16 25 C18.2825056 28.55802344 20.32359407 31.77246293 21 36 C19 34.625 19 34.625 17 33 C17 32.34 17 31.68 17 31 C16.34 31 15.68 31 15 31 C12.77786572 26.85201601 10.91355378 23.17581403 9.9375 18.5625 C9.628125 17.386875 9.31875 16.21125 9 15 C8.01 14.67 7.02 14.34 6 14 C6 12.35 6 10.7 6 9 C5.01 8.67 4.02 8.34 3 8 C0.92469613 5.07920195 0 3.62453269 0 0 Z " fill="#222222" transform="translate(191,180)"/>
<path d="M0 0 C0.91644287 0.00523682 1.83288574 0.01047363 2.77709961 0.01586914 C3.76645508 0.0190918 4.75581055 0.02231445 5.77514648 0.02563477 C6.81606445 0.03401367 7.85698242 0.04239258 8.92944336 0.05102539 C10.49662109 0.05779297 10.49662109 0.05779297 12.09545898 0.06469727 C14.68600996 0.07652627 17.27644895 0.0930085 19.86694336 0.11352539 C20.19694336 0.77352539 20.52694336 1.43352539 20.86694336 2.11352539 C13.60694336 2.11352539 6.34694336 2.11352539 -1.13305664 2.11352539 C-1.46305664 10.36352539 -1.79305664 18.61352539 -2.13305664 27.11352539 C-2.79305664 27.11352539 -3.45305664 27.11352539 -4.13305664 27.11352539 C-4.79305664 24.80352539 -5.45305664 22.49352539 -6.13305664 20.11352539 C-5.47305664 19.78352539 -4.81305664 19.45352539 -4.13305664 19.11352539 C-4.0724707 17.82575195 -4.01188477 16.53797852 -3.94946289 15.21118164 C-3.86507417 13.5327838 -3.78042535 11.85439903 -3.69555664 10.17602539 C-3.63658203 8.90082031 -3.63658203 8.90082031 -3.57641602 7.59985352 C-3.53452148 6.7909668 -3.49262695 5.98208008 -3.44946289 5.14868164 C-3.41280518 4.39981689 -3.37614746 3.65095215 -3.33837891 2.87939453 C-3.03314499 0.2542377 -2.64461857 0.1407517 0 0 Z M-9.13305664 22.11352539 C-8.14305664 22.60852539 -8.14305664 22.60852539 -7.13305664 23.11352539 C-7.13305664 23.77352539 -7.13305664 24.43352539 -7.13305664 25.11352539 C-6.47305664 25.11352539 -5.81305664 25.11352539 -5.13305664 25.11352539 C-5.46305664 26.43352539 -5.79305664 27.75352539 -6.13305664 29.11352539 C-9.13305664 24.36352539 -9.13305664 24.36352539 -9.13305664 22.11352539 Z " fill="#363538" transform="translate(153.133056640625,117.886474609375)"/>
<path d="M0 0 C4.75 0.75 4.75 0.75 7 3 C7.1953125 5.3828125 7.1953125 5.3828125 7.125 8.125 C7.10695312 9.03507813 7.08890625 9.94515625 7.0703125 10.8828125 C7.04710937 11.58148438 7.02390625 12.28015625 7 13 C5.35 13.33 3.7 13.66 2 14 C0.66416101 9.15758367 -0.25328119 5.06562383 0 0 Z " fill="#494947" transform="translate(189,217)"/>
<path d="M0 0 C0.99 0.33 1.98 0.66 3 1 C3 3.64 3 6.28 3 9 C3.70125 9.0825 4.4025 9.165 5.125 9.25 C10.93498675 10.76564872 14.55153083 14.22519653 18 19 C15.52722205 17.90098758 13.75126419 16.78487714 11.6875 15 C8.43935262 12.58277404 5.91252314 11.92059368 2 11 C2.0928125 12.5778125 2.0928125 12.5778125 2.1875 14.1875 C1.9922214 18.15816493 1.29674932 19.84196969 -1 23 C-1.95827504 19.95501389 -1.99431517 17.97726069 -1.22265625 14.890625 C-1.03896484 14.13652344 -0.85527344 13.38242188 -0.66601562 12.60546875 C-0.36727539 11.43951172 -0.36727539 11.43951172 -0.0625 10.25 C0.23043945 9.06083984 0.23043945 9.06083984 0.52929688 7.84765625 C1.01124079 5.89637115 1.50452088 3.94789217 2 2 C1.01 1.67 0.02 1.34 -1 1 C-0.67 0.67 -0.34 0.34 0 0 Z " fill="#141415" transform="translate(189,106)"/>
<path d="M0 0 C0.99 0 1.98 0 3 0 C2.47606294 5.86809507 1.23891142 10.54873741 -1 16 C-1.66 15.34 -2.32 14.68 -3 14 C-4.32 16.31 -5.64 18.62 -7 21 C-7.92101016 18.50653347 -8.17516001 17.40870668 -7.109375 14.921875 C-6.66078125 14.20515625 -6.2121875 13.4884375 -5.75 12.75 C-3.27855738 8.5988025 -1.57593454 4.56191578 0 0 Z " fill="#39393B" transform="translate(188,108)"/>
<path d="M0 0 C0.33 0 0.66 0 1 0 C1.309375 0.94875 1.61875 1.8975 1.9375 2.875 C2.87394742 5.86080408 2.87394742 5.86080408 4 8 C4.23172827 10.54615009 4.41894529 13.07396225 4.5625 15.625 C4.60568359 16.33140625 4.64886719 17.0378125 4.69335938 17.765625 C4.79944751 19.51018537 4.90022889 21.25506697 5 23 C4.34 22.67 3.68 22.34 3 22 C2.67 20.68 2.34 19.36 2 18 C1.67 21.3 1.34 24.6 1 28 C0.67 28 0.34 28 0 28 C-0.06058594 27.02417969 -0.12117187 26.04835937 -0.18359375 25.04296875 C-0.26738281 23.77066406 -0.35117188 22.49835938 -0.4375 21.1875 C-0.51871094 19.92292969 -0.59992188 18.65835938 -0.68359375 17.35546875 C-0.87184547 14.00818107 -0.87184547 14.00818107 -2 11 C-1.66015625 8.30078125 -1.66015625 8.30078125 -1.0625 5.3125 C-0.86785156 4.31863281 -0.67320312 3.32476562 -0.47265625 2.30078125 C-0.31667969 1.54152344 -0.16070312 0.78226563 0 0 Z " fill="#2B2B2B" transform="translate(148,203)"/>
<path d="M0 0 C0.99 0.33 1.98 0.66 3 1 C3.33 2.98 3.66 4.96 4 7 C2.02 7 0.04 7 -2 7 C-2.33 7.99 -2.66 8.98 -3 10 C-0.36 9.67 2.28 9.34 5 9 C5.33 9.66 5.66 10.32 6 11 C1.545 11.495 1.545 11.495 -3 12 C-3 12.99 -3 13.98 -3 15 C-2.34 15 -1.68 15 -1 15 C-0.34 16.32 0.32 17.64 1 19 C-1.6075248 17.98992724 -2.80441446 17.31481637 -4.30078125 14.90625 C-4.80158203 13.71515625 -4.80158203 13.71515625 -5.3125 12.5 C-5.65925781 11.7059375 -6.00601563 10.911875 -6.36328125 10.09375 C-7 8 -7 8 -6 6 C-3.69034152 4.94647157 -1.3570226 3.94280904 1 3 C0.67 2.01 0.34 1.02 0 0 Z " fill="#3B3B3B" transform="translate(160,173)"/>
<path d="M0 0 C5.71434323 0.36825767 9.9382534 1.13901279 15 4 C17.31731974 5.04090988 19.65757299 6.01618066 22 7 C22 7.66 22 8.32 22 9 C22.61875 9.12375 23.2375 9.2475 23.875 9.375 C26 10 26 10 28 12 C26.22694336 11.74412595 24.45655392 11.46972261 22.6875 11.1875 C21.70136719 11.03667969 20.71523437 10.88585938 19.69921875 10.73046875 C16.73565254 9.92846169 16.0604902 9.14634396 14 7 C11.28174215 5.78133025 11.28174215 5.78133025 8.3125 4.8125 C7.31863281 4.46832031 6.32476562 4.12414062 5.30078125 3.76953125 C4.16189453 3.38861328 4.16189453 3.38861328 3 3 C3 2.34 3 1.68 3 1 C2.01 0.67 1.02 0.34 0 0 Z " fill="#6F6F6F" transform="translate(232,12)"/>
<path d="M0 0 C2.09596604 2.49519767 3.16879129 4.45814779 4.3125 7.5625 C6.30060212 11.61233765 7.86169918 12.43664191 12 14 C12 14.33 12 14.66 12 15 C8.62112287 15.28527105 5.36826645 15.45018698 2 15 C-0.18182341 12.56149148 -1 11.2678851 -1 8 C-0.34 8 0.32 8 1 8 C0.67 5.36 0.34 2.72 0 0 Z " fill="#19171A" transform="translate(179,195)"/>
<path d="M0 0 C0.66 0 1.32 0 2 0 C2.84384675 1.41042956 3.67469496 2.82864132 4.5 4.25 C5.19609375 5.43335937 5.19609375 5.43335937 5.90625 6.640625 C7 9 7 9 7 13 C6.34 13 5.68 13 5 13 C4.67 13.99 4.34 14.98 4 16 C0.67424388 10.4174808 -0.46450943 6.50313209 0 0 Z " fill="#454345" transform="translate(127,109)"/>
<path d="M0 0 C1.859375 0.22265625 1.859375 0.22265625 4 1 C5.265625 2.99609375 5.265625 2.99609375 6.25 5.4375 C6.58515625 6.24058594 6.9203125 7.04367188 7.265625 7.87109375 C8 10 8 10 8 12 C8.66 12 9.32 12 10 12 C11.5 16.5 11.5 16.5 13 21 C12.34 21 11.68 21 11 21 C7.37806082 17.03850402 5 13.4511942 5 8 C4.01 7.67 3.02 7.34 2 7 C2 5.35 2 3.7 2 2 C1.34 2 0.68 2 0 2 C0 1.34 0 0.68 0 0 Z " fill="#282828" transform="translate(20,248)"/>
<path d="M0 0 C3.19489096 1.59744548 3.85102466 4.79398818 5 8 C6.4883021 12.93845698 7.36105532 17.88844255 8 23 C3.77784668 19.79698713 2.95243353 16.16435409 1.7109375 11.2421875 C1.13473011 8.827852 1.13473011 8.827852 -1 7 C-0.625 4.5 -0.625 4.5 0 2 C0 1.34 0 0.68 0 0 Z " fill="#212021" transform="translate(133,134)"/>
<path d="M0 0 C6.94788274 3.60260586 6.94788274 3.60260586 9 8 C9.721875 8.28875 10.44375 8.5775 11.1875 8.875 C15.143869 10.4575476 17.88542221 13.14571834 21 16 C20.01 16.33 19.02 16.66 18 17 C17.67 16.01 17.34 15.02 17 14 C14.98491642 13.26676204 14.98491642 13.26676204 13 13 C13 12.34 13 11.68 13 11 C12.236875 10.896875 11.47375 10.79375 10.6875 10.6875 C7.81583516 9.95288806 6.76957906 9.3283935 5 7 C5 6.34 5 5.68 5 5 C4.01 5 3.02 5 2 5 C1.34 3.35 0.68 1.7 0 0 Z " fill="#555555" transform="translate(273,32)"/>
<path d="M0 0 C1.32 0.66 2.64 1.32 4 2 C0.76381455 5.63491317 -2.02964394 8.69269676 -6.98046875 9.46484375 C-9.68463232 9.44035585 -12.31447322 9.3110077 -15 9 C-15.33 8.01 -15.66 7.02 -16 6 C-15.00419922 6.08701172 -15.00419922 6.08701172 -13.98828125 6.17578125 C-8.0006872 6.54711432 -8.0006872 6.54711432 -2.9375 3.5625 C-2.298125 2.716875 -1.65875 1.87125 -1 1 C-0.67 0.67 -0.34 0.34 0 0 Z " fill="#393939" transform="translate(142,228)"/>
<path d="M0 0 C1.98 0.99 3.96 1.98 6 3 C6 3.66 6 4.32 6 5 C6.5775 5.2475 7.155 5.495 7.75 5.75 C10.34908658 7.19393699 12.07836838 8.73521987 14 11 C14 11.99 14 12.98 14 14 C13.01 13.67 12.02 13.34 11 13 C10.67 12.34 10.34 11.68 10 11 C9.01 10.67 8.02 10.34 7 10 C7 9.34 7 8.68 7 8 C6.01 7.67 5.02 7.34 4 7 C4 6.34 4 5.68 4 5 C3.01 5 2.02 5 1 5 C0.67 3.35 0.34 1.7 0 0 Z " fill="#2D2D2D" transform="translate(55,295)"/>
<path d="M0 0 C2 0 2 0 4.375 2.3125 C5.24125 3.199375 6.1075 4.08625 7 5 C10.1972712 7.87892818 12.48165936 8.4334321 16.75 8.6875 C18.22726563 8.78611328 18.22726563 8.78611328 19.734375 8.88671875 C20.48203125 8.92410156 21.2296875 8.96148437 22 9 C21.67 9.66 21.34 10.32 21 11 C15.12255975 11.58342238 10.38592678 11.87573181 5.4375 8.3125 C2.59017205 5.86111949 0.88136287 3.74579222 0 0 Z " fill="#232124" transform="translate(212,216)"/>
<path d="M0 0 C0 0.66 0 1.32 0 2 C-3.3 2.33 -6.6 2.66 -10 3 C-10 3.66 -10 4.32 -10 5 C-10.99 5 -11.98 5 -13 5 C-13 5.66 -13 6.32 -13 7 C-15.97 6.67 -18.94 6.34 -22 6 C-19.72360853 3.72360853 -18.77105117 3.58043316 -15.6875 3 C-13.03334685 2.46577748 -10.82113466 1.92512614 -8.3125 0.875 C-5.44938126 -0.20834223 -3.03472369 -0.14114994 0 0 Z " fill="#424242" transform="translate(143,4)"/>
<path d="M0 0 C0.93423645 3.01031744 1.04449911 3.86650268 0 7 C-1.4375 8.6875 -1.4375 8.6875 -3 10 C-3.66 10 -4.32 10 -5 10 C-5.0825 10.61875 -5.165 11.2375 -5.25 11.875 C-6 14 -6 14 -8 15.0625 C-8.66 15.371875 -9.32 15.68125 -10 16 C-10.33 16.99 -10.66 17.98 -11 19 C-11.66 19 -12.32 19 -13 19 C-12.45388137 15.17716957 -10.76181385 13.58920048 -8 11 C-7.67 10.34 -7.34 9.68 -7 9 C-6.34 9 -5.68 9 -5 9 C-4.67 7.68 -4.34 6.36 -4 5 C-3.34 5 -2.68 5 -2 5 C-2 4.34 -2 3.68 -2 3 C-1.34 3 -0.68 3 0 3 C0 2.01 0 1.02 0 0 Z " fill="#393939" transform="translate(312,273)"/>
<path d="M0 0 C0.33 1.32 0.66 2.64 1 4 C0.34 4 -0.32 4 -1 4 C-1.268125 4.928125 -1.53625 5.85625 -1.8125 6.8125 C-2.946683 9.85688595 -3.69684158 10.89711622 -6 13 C-6.33 13.99 -6.66 14.98 -7 16 C-8.65 16.33 -10.3 16.66 -12 17 C-9.25 11.125 -9.25 11.125 -7 10 C-5.99417137 8.24791141 -4.99076428 6.4941562 -4.01953125 4.72265625 C-2.90640891 2.84186334 -1.6650789 1.41531706 0 0 Z " fill="#636363" transform="translate(42,63)"/>
<path d="M0 0 C1.32 0 2.64 0 4 0 C4.28780586 3.05074215 4.45787911 5.96183742 4 9 C1.5 11.0625 1.5 11.0625 -1 12 C-1.14285714 3.42857143 -1.14285714 3.42857143 0 0 Z " fill="#080808" transform="translate(127,217)"/>
<path d="M0 0 C0.66 0 1.32 0 2 0 C1.1875 1.9375 1.1875 1.9375 0 4 C-0.99 4.33 -1.98 4.66 -3 5 C-3 5.66 -3 6.32 -3 7 C-3.99 7 -4.98 7 -6 7 C-6.33 7.99 -6.66 8.98 -7 10 C-9.5625 11.6875 -9.5625 11.6875 -12 13 C-11.67 11.35 -11.34 9.7 -11 8 C-10.01 8 -9.02 8 -8 8 C-7.9175 7.38125 -7.835 6.7625 -7.75 6.125 C-7 4 -7 4 -5.125 2.75 C-3 2 -3 2 0 2 C0 1.34 0 0.68 0 0 Z " fill="#595959" transform="translate(291,298)"/>
<path d="M0 0 C0.66 0.33 1.32 0.66 2 1 C0.37660195 2.70884005 -1.29319053 4.37446717 -3 6 C-3.66 6 -4.32 6 -5 6 C-5 7.32 -5 8.64 -5 10 C-4.34 10 -3.68 10 -3 10 C-2.66254646 12.39531756 -2.3299171 14.79114268 -2 17.1875 C-1.90460938 17.86103516 -1.80921875 18.53457031 -1.7109375 19.22851562 C-1.21675387 22.84664577 -0.88653869 26.34796401 -1 30 C-3.75077861 27.24922139 -3.32897762 25.39767689 -3.5 21.5625 C-3.66900564 16.45395516 -3.66900564 16.45395516 -6 12 C-6.5 8.625 -6.5 8.625 -6 5 C-4.17633295 2.87415556 -2.33931992 1.60828244 0 0 Z " fill="#121212" transform="translate(155,196)"/>
<path d="M0 0 C1.32 0 2.64 0 4 0 C4.165 0.680625 4.33 1.36125 4.5 2.0625 C6.42490334 5.83210237 9.05210836 7.82651401 12.3203125 10.44921875 C12.87460937 10.96097656 13.42890625 11.47273438 14 12 C14 12.66 14 13.32 14 14 C12.35 13.67 10.7 13.34 9 13 C9 12.34 9 11.68 9 11 C8.34 11 7.68 11 7 11 C7 10.01 7 9.02 7 8 C6.01 7.67 5.02 7.34 4 7 C3.67 5.35 3.34 3.7 3 2 C2.01 2 1.02 2 0 2 C0 1.34 0 0.68 0 0 Z " fill="#383838" transform="translate(41,281)"/>
<path d="M0 0 C2.64 0.66 5.28 1.32 8 2 C8 2.99 8 3.98 8 5 C2.72 5 -2.56 5 -8 5 C-7.67 4.01 -7.34 3.02 -7 2 C-4.69 2 -2.38 2 0 2 C0 1.34 0 0.68 0 0 Z " fill="#424041" transform="translate(156,229)"/>
<path d="M0 0 C0 0.66 0 1.32 0 2 C-5.30039859 3.66554027 -10.47293087 5.27275406 -16 6 C-15.5 4.125 -15.5 4.125 -14 2 C-9.18827156 0.39609052 -5.0944085 -0.25472042 0 0 Z " fill="#252525" transform="translate(235,334)"/>
<path d="M0 0 C1 3 1 3 0 6 C3.12607441 5.91932999 6.25016751 5.8064771 9.375 5.6875 C10.26445312 5.66494141 11.15390625 5.64238281 12.0703125 5.61914062 C12.92109375 5.58369141 13.771875 5.54824219 14.6484375 5.51171875 C15.82672119 5.47244263 15.82672119 5.47244263 17.02880859 5.43237305 C19.40040156 5.15110403 19.40040156 5.15110403 21 2 C20.67 3.65 20.34 5.3 20 7 C16.58340509 7.05816623 13.16693795 7.09365195 9.75 7.125 C8.29787109 7.15013672 8.29787109 7.15013672 6.81640625 7.17578125 C5.41455078 7.18544922 5.41455078 7.18544922 3.984375 7.1953125 C3.12553711 7.20578613 2.26669922 7.21625977 1.38183594 7.22705078 C-1.17903596 6.98293323 -2.79511029 6.28990512 -5 5 C-3.35 3.35 -1.7 1.7 0 0 Z " fill="#121011" transform="translate(146,229)"/>
<path d="M0 0 C0.66 0 1.32 0 2 0 C2 5.61 2 11.22 2 17 C1.34 17 0.68 17 0 17 C-0.33 17.99 -0.66 18.98 -1 20 C-1 2 -1 2 0 0 Z " fill="#2C2B2C" transform="translate(202,217)"/>
<path d="M0 0 C1.39195915 4.17587745 -0.17676781 6.13474776 -2 10 C-4.31 9.01 -6.62 8.02 -9 7 C-9 6.34 -9 5.68 -9 5 C-8.071875 4.731875 -7.14375 4.46375 -6.1875 4.1875 C-3.23759634 3.08851629 -1.94384814 2.37581439 0 0 Z " fill="#49494A" transform="translate(146,206)"/>
<path d="M0 0 C0.66 0 1.32 0 2 0 C5 3.46153846 5 3.46153846 5 6 C5.66 6 6.32 6 7 6 C8.2890625 7.53125 8.2890625 7.53125 9.625 9.5 C10.07101562 10.1496875 10.51703125 10.799375 10.9765625 11.46875 C11.48316406 12.22671875 11.48316406 12.22671875 12 13 C11.67 13.66 11.34 14.32 11 15 C8.5 13.1875 8.5 13.1875 6 11 C6 10.01 6 9.02 6 8 C5.34 8 4.68 8 4 8 C1.875 6.25 1.875 6.25 0 4 C0 2.68 0 1.36 0 0 Z " fill="#7A7A7A" transform="translate(299,54)"/>
<path d="M0 0 C2.78750144 1.39375072 2.89266287 3.16244861 4 6 C4.66 6.66 5.32 7.32 6 8 C6.125 10.625 6.125 10.625 6 13 C1.96615872 10.92856799 0.07143201 9.03384128 -2 5 C-1.34 5 -0.68 5 0 5 C0 3.35 0 1.7 0 0 Z " fill="#444544" transform="translate(169,189)"/>
<path d="M0 0 C0.66 0.33 1.32 0.66 2 1 C1.01 1.33 0.02 1.66 -1 2 C-1.33 2.99 -1.66 3.98 -2 5 C-2.99 5.309375 -3.98 5.61875 -5 5.9375 C-6.485 6.4634375 -6.485 6.4634375 -8 7 C-8.96877057 9.03243548 -8.96877057 9.03243548 -9 11 C-9.66 11 -10.32 11 -11 11 C-11.33 11.66 -11.66 12.32 -12 13 C-12.125 5.25 -12.125 5.25 -11 3 C-10.34 3 -9.68 3 -9 3 C-9 3.66 -9 4.32 -9 5 C-5.22454612 3.90931332 -2.52956528 3.0916909 0 0 Z " fill="#1B191A" transform="translate(183,162)"/>
<path d="M0 0 C6.7807571 0.14427143 11.31890323 3.14813361 16 8 C16.7578125 10.23046875 16.7578125 10.23046875 17 12 C16.34 12 15.68 12 15 12 C13.7797475 10.51590912 12.56134939 9.03018277 11.359375 7.53125 C8.52825077 4.34216754 5.13907541 2.76649545 1 2 C1 3.65 1 5.3 1 7 C0.67 7 0.34 7 0 7 C0 4.69 0 2.38 0 0 Z " fill="#383739" transform="translate(191,117)"/>
<path d="M0 0 C0.66 0 1.32 0 2 0 C1.67 2.64 1.34 5.28 1 8 C0.34 8 -0.32 8 -1 8 C-1.33 9.32 -1.66 10.64 -2 12 C-2.66 12 -3.32 12 -4 12 C-4.33 13.65 -4.66 15.3 -5 17 C-5.66 17 -6.32 17 -7 17 C-6.67 15.02 -6.34 13.04 -6 11 C-5.34 11 -4.68 11 -4 11 C-3.67 9.35 -3.34 7.7 -3 6 C-2.34 6 -1.68 6 -1 6 C-0.67 4.02 -0.34 2.04 0 0 Z " fill="#646161" transform="translate(23,90)"/>
<path d="M0 0 C0 0.66 0 1.32 0 2 C-1.32 2 -2.64 2 -4 2 C-4 3.98 -4 5.96 -4 8 C-4.33 8 -4.66 8 -5 8 C-5 6.35 -5 4.7 -5 3 C-6.65 3.33 -8.3 3.66 -10 4 C-9.67 7.63 -9.34 11.26 -9 15 C-9.66 15 -10.32 15 -11 15 C-11 11.04 -11 7.08 -11 3 C-7.14243493 0.84694043 -4.44870215 -0.39253254 0 0 Z " fill="#222221" transform="translate(191,213)"/>
<path d="M0 0 C0.99 0.495 0.99 0.495 2 1 C2 2.32 2 3.64 2 5 C2.99 5.33 3.98 5.66 5 6 C7.2825056 9.55802344 9.32359407 12.77246293 10 17 C8 15.625 8 15.625 6 14 C6 13.34 6 12.68 6 12 C5.34 12 4.68 12 4 12 C3.32332002 10.75539217 2.65905281 9.50403104 2 8.25 C1.62875 7.55390625 1.2575 6.8578125 0.875 6.140625 C0 4 0 4 0 0 Z " fill="#343234" transform="translate(202,199)"/>
<path d="M0 0 C0.33 0.99 0.66 1.98 1 3 C1.66 3 2.32 3 3 3 C3.12375 4.2375 3.2475 5.475 3.375 6.75 C3.76171459 9.93338965 4.48143922 12.16535321 6 15 C6 16.32 6 17.64 6 19 C5.34 19 4.68 19 4 19 C0.75428718 12.79081025 0.33055741 6.94170563 0 0 Z " fill="#6A6A6A" transform="translate(337,116)"/>
<path d="M0 0 C0.33 0 0.66 0 1 0 C1.02687279 1.81242052 1.04633715 3.62495233 1.0625 5.4375 C1.07410156 6.44683594 1.08570313 7.45617187 1.09765625 8.49609375 C1 11 1 11 0 12 C-0.23192865 13.51469448 -0.41215238 15.03754562 -0.5625 16.5625 C-0.64628906 17.38878906 -0.73007813 18.21507812 -0.81640625 19.06640625 C-0.87699219 19.70449219 -0.93757812 20.34257812 -1 21 C-1.33 21 -1.66 21 -2 21 C-2.0543965 18.62468606 -2.09385864 16.25064117 -2.125 13.875 C-2.14175781 13.20984375 -2.15851562 12.5446875 -2.17578125 11.859375 C-2.21847278 7.50483944 -1.59996217 4.04399886 0 0 Z " fill="#5C5A5B" transform="translate(7,133)"/>
<path d="M0 0 C0 3.20530602 -0.6374746 5.04263271 -1.8125 8 C-2.31716797 9.299375 -2.31716797 9.299375 -2.83203125 10.625 C-3.98952608 12.97870187 -5.09684009 14.24170003 -7 16 C-7.66 16.99 -8.32 17.98 -9 19 C-9.1875 16.6875 -9.1875 16.6875 -9 14 C-8.53207031 13.54367188 -8.06414062 13.08734375 -7.58203125 12.6171875 C-5.17735581 10.15907483 -4.74086667 7.31064167 -3.84375 4.05859375 C-3 2 -3 2 0 0 Z " fill="#212022" transform="translate(179,127)"/>
<path d="M0 0 C-3 2 -3 2 -6 2 C-6 2.66 -6 3.32 -6 4 C-10.455 4.495 -10.455 4.495 -15 5 C-14.01 4.01 -13.02 3.02 -12 2 C-11.01 2 -10.02 2 -9 2 C-9 1.34 -9 0.68 -9 0 C-5.62182575 -0.84454356 -3.32534757 -1.10844919 0 0 Z " fill="#424243" transform="translate(117,13)"/>
<path d="M0 0 C1.32 0 2.64 0 4 0 C4 1.98 4 3.96 4 6 C3.34 4.68 2.68 3.36 2 2 C1.608125 3.03125 1.21625 4.0625 0.8125 5.125 C-0.85653977 9.06489676 -3.1439377 11.83517421 -6 15 C-6 12 -6 12 -4.625 10.1875 C-2.69156232 7.58479543 -1.9391689 5.08584069 -1 2 C-0.67 1.34 -0.34 0.68 0 0 Z " fill="#3A383A" transform="translate(247,206)"/>
<path d="M0 0 C2 2 2 2 2 5 C2.99 5.33 3.98 5.66 5 6 C7 9 7 9 7 12 C4 12 4 12 1.8125 9.9375 C-0.39022067 6.3675734 -0.32325181 4.12146058 0 0 Z " fill="#777777" transform="translate(316,74)"/>
<path d="M0 0 C0.33 0 0.66 0 1 0 C1.738041 15.92938497 1.738041 15.92938497 -3 22 C-4.24056696 18.27829913 -3.19683669 16.89956378 -1.76953125 13.40625 C-0.37838514 9.05627029 -0.2418955 4.53762588 0 0 Z " fill="#161617" transform="translate(189,140)"/>
<path d="M0 0 C0.125 2.875 0.125 2.875 0 6 C-0.66 6.66 -1.32 7.32 -2 8 C-2.33 7.34 -2.66 6.68 -3 6 C-4.32 8.31 -5.64 10.62 -7 13 C-7.75 11.4375 -7.75 11.4375 -8 9 C-6.6456956 5.69520284 -4.24584493 0 0 0 Z " fill="#403F41" transform="translate(188,116)"/>
<path d="M0 0 C0.66 0 1.32 0 2 0 C0.66629231 3.59075147 -0.80987082 6.84621398 -3 10 C-3.99 10.33 -4.98 10.66 -6 11 C-5.67 8.36 -5.34 5.72 -5 3 C-3.35 2.67 -1.7 2.34 0 2 C0 1.34 0 0.68 0 0 Z " fill="#4F4F4F" transform="translate(321,262)"/>
<path d="M0 0 C1.32 0.33 2.64 0.66 4 1 C4.33 2.32 4.66 3.64 5 5 C4.01 4.67 3.02 4.34 2 4 C2.33 4.99 2.66 5.98 3 7 C3.06970052 9.39490986 3.08448003 11.79167691 3.0625 14.1875 C3.05347656 15.45980469 3.04445312 16.73210937 3.03515625 18.04296875 C3.02355469 19.01878906 3.01195312 19.99460938 3 21 C2.67 21 2.34 21 2 21 C1.93941406 20.154375 1.87882813 19.30875 1.81640625 18.4375 C1.36040967 12.2640078 0.84179888 6.13310616 0 0 Z " fill="#3E3D3E" transform="translate(175,204)"/>
<path d="M0 0 C2.0088485 0.98210371 4.00787329 1.98440599 6 3 C8.73572585 3.69907414 8.73572585 3.69907414 11 4 C11 4.66 11 5.32 11 6 C3.73846154 6.61538462 3.73846154 6.61538462 0 3.5 C-0.66 2.675 -1.32 1.85 -2 1 C-1.34 0.67 -0.68 0.34 0 0 Z " fill="#3C3C3C" transform="translate(201,237)"/>
<path d="M0 0 C0.99 0 1.98 0 3 0 C3.36666667 5.5 3.36666667 5.5 1.625 7.875 C0 9 0 9 -2 9 C-2.20140476 5.37471432 -1.85776765 3.13498292 0 0 Z " fill="#434345" transform="translate(151,190)"/>
<path d="M0 0 C-0.24609375 1.890625 -0.24609375 1.890625 -1 4 C-2.84765625 5.046875 -2.84765625 5.046875 -5.0625 5.75 C-6.16271484 6.11351562 -6.16271484 6.11351562 -7.28515625 6.484375 C-8.13400391 6.73960938 -8.13400391 6.73960938 -9 7 C-7.53563715 2.36285097 -7.53563715 2.36285097 -5.0625 0.6875 C-3 0 -3 0 0 0 Z " fill="#373738" transform="translate(102,18)"/>
<path d="M0 0 C0.99 0 1.98 0 3 0 C3 0.99 3 1.98 3 3 C3.66 3 4.32 3 5 3 C7.74375671 5.95481492 8 6.77471908 8 11 C7.34 11 6.68 11 6 11 C4.4921875 9.1015625 4.4921875 9.1015625 2.875 6.625 C2.33617187 5.81289063 1.79734375 5.00078125 1.2421875 4.1640625 C0 2 0 2 0 0 Z " fill="#302F2F" transform="translate(33,270)"/>
<path d="M0 0 C0.66 0 1.32 0 2 0 C2.33 2.31 2.66 4.62 3 7 C3.66 7 4.32 7 5 7 C4.67 8.65 4.34 10.3 4 12 C3.67 11.01 3.34 10.02 3 9 C2.34 9 1.68 9 1 9 C0.67 6.03 0.34 3.06 0 0 Z " fill="#514E51" transform="translate(16,236)"/>
<path d="M0 0 C1.9375 0.5 1.9375 0.5 4 2 C4.68790422 4.69658452 4.81946464 7.2017019 5 10 C4.34 10 3.68 10 3 10 C2.67 8.68 2.34 7.36 2 6 C1.34 6 0.68 6 0 6 C0 4.02 0 2.04 0 0 Z " fill="#0B090B" transform="translate(175,193)"/>
<path d="M0 0 C1.32 0.33 2.64 0.66 4 1 C4.33 3.64 4.66 6.28 5 9 C4.01 9.495 4.01 9.495 3 10 C0.96564469 6.27034861 0 4.33094958 0 0 Z " fill="#242225" transform="translate(143,162)"/>
<path d="M0 0 C0.66 0.33 1.32 0.66 2 1 C2.703125 3.1796875 2.703125 3.1796875 3.25 5.875 C3.44078125 6.75929687 3.6315625 7.64359375 3.828125 8.5546875 C4 11 4 11 2 14 C1.30289269 12.71349294 0.61757124 11.42059335 -0.0625 10.125 C-0.44535156 9.40570313 -0.82820312 8.68640625 -1.22265625 7.9453125 C-1.47917969 7.30335938 -1.73570312 6.66140625 -2 6 C-1.67 5.34 -1.34 4.68 -1 4 C-0.67 4.33 -0.34 4.66 0 5 C0 3.35 0 1.7 0 0 Z " fill="#2C2A2D" transform="translate(140,151)"/>
<path d="M0 0 C5.02705917 0.12047418 8.09872551 0.24587237 12.0625 3.5625 C12.701875 4.366875 13.34125 5.17125 14 6 C12.54096742 5.69078116 11.08279278 5.37751201 9.625 5.0625 C8.81289062 4.88847656 8.00078125 4.71445312 7.1640625 4.53515625 C5 4 5 4 3 3 C3 2.34 3 1.68 3 1 C2.01 0.67 1.02 0.34 0 0 Z " fill="#474747" transform="translate(232,12)"/>
<path d="M0 0 C1.52961198 3.05922395 0.50723611 5.67478548 0 9 C-0.03545297 10.66628955 -0.05048188 12.33409803 0 14 C-0.66 14 -1.32 14 -2 14 C-3.18823797 10.43528609 -3.26274852 7.7441664 -3 4 C-1.5 1.5625 -1.5 1.5625 0 0 Z " fill="#3B3B3B" transform="translate(125,218)"/>
<path d="M0 0 C0.6875 1.8125 0.6875 1.8125 1 4 C0.54367188 4.45503906 0.08734375 4.91007813 -0.3828125 5.37890625 C-2.2313476 7.23190641 -2.76471906 8.65415847 -3.5625 11.125 C-4.25390625 13.2578125 -4.25390625 13.2578125 -5 15 C-5.99 15.495 -5.99 15.495 -7 16 C-6.32829194 12.1936543 -5.27253436 8.64793184 -4 5 C-3.34 5 -2.68 5 -2 5 C-1.855625 4.360625 -1.71125 3.72125 -1.5625 3.0625 C-1 1 -1 1 0 0 Z " fill="#38353A" transform="translate(173,141)"/>
<path d="M0 0 C0.66 0.33 1.32 0.66 2 1 C2.6875 4 2.6875 4 3 7 C2.67 7.33 2.34 7.66 2 8 C2 9.32 2 10.64 2 12 C2.66 12 3.32 12 4 12 C3.67 13.32 3.34 14.64 3 16 C2.13372601 14.40233897 1.28233535 12.79660056 0.4375 11.1875 C-0.03816406 10.29417969 -0.51382813 9.40085937 -1.00390625 8.48046875 C-2 6 -2 6 -1 3 C-0.67 2.67 -0.34 2.34 0 2 C0 1.34 0 0.68 0 0 Z " fill="#313032" transform="translate(136,117)"/>
<path d="M0 0 C4.08718695 -0.24042276 7.17679443 0.57741188 11 2 C11 2.66 11 3.32 11 4 C11.99 4.33 12.98 4.66 14 5 C11.03 4.67 8.06 4.34 5 4 C5 3.34 5 2.68 5 2 C3.35 2 1.7 2 0 2 C0 1.34 0 0.68 0 0 Z " fill="#3C3B3C" transform="translate(125,337)"/>
<path d="M0 0 C0.66 0 1.32 0 2 0 C2.86883706 1.57533086 3.71959068 3.16064509 4.5625 4.75 C5.03816406 5.63171875 5.51382813 6.5134375 6.00390625 7.421875 C7.07998186 10.20701188 7.06528748 11.26980214 6 14 C3.02931839 9.6147081 1.54058233 5.01508715 0 0 Z " fill="#1A1918" transform="translate(151,151)"/>
<path d="M0 0 C2.31 0 4.62 0 7 0 C7 1.32 7 2.64 7 4 C4.69 4 2.38 4 0 4 C0 2.68 0 1.36 0 0 Z " fill="#424041" transform="translate(118,113)"/>
<path d="M0 0 C3.63 0 7.26 0 11 0 C11.33 0.99 11.66 1.98 12 3 C10.37509046 3.02698189 8.75005367 3.04638757 7.125 3.0625 C5.76761719 3.07990234 5.76761719 3.07990234 4.3828125 3.09765625 C2 3 2 3 0 2 C0 1.34 0 0.68 0 0 Z " fill="#404040" transform="translate(185,234)"/>
<path d="M0 0 C1.98 0.99 1.98 0.99 4 2 C4.33 1.34 4.66 0.68 5 0 C5.66 0 6.32 0 7 0 C7.33 1.98 7.66 3.96 8 6 C7.01 5.67 6.02 5.34 5 5 C4.67 5.66 4.34 6.32 4 7 C4 6.01 4 5.02 4 4 C3.01 4 2.02 4 1 4 C0.67 2.68 0.34 1.36 0 0 Z " fill="#2A2829" transform="translate(170,199)"/>
<path d="M0 0 C0 2.97 0 5.94 0 9 C-0.99 9 -1.98 9 -3 9 C-3.33 6.69 -3.66 4.38 -4 2 C-1 0 -1 0 0 0 Z " fill="#212020" transform="translate(345,197)"/>
<path d="M0 0 C2.97 0.33 5.94 0.66 9 1 C9 1.66 9 2.32 9 3 C9.66 3 10.32 3 11 3 C11 3.66 11 4.32 11 5 C7.1936543 4.32829194 3.64793184 3.27253436 0 2 C0 1.34 0 0.68 0 0 Z " fill="#312C31" transform="translate(100,328)"/>
<path d="M0 0 C2.97 0.495 2.97 0.495 6 1 C6 1.66 6 2.32 6 3 C6.66 3.33 7.32 3.66 8 4 C5.03 4 2.06 4 -1 4 C-0.67 2.68 -0.34 1.36 0 0 Z " fill="#535152" transform="translate(150,228)"/>
<path d="M0 0 C3.38946688 2.25964458 3.85336716 3.20729138 5 7 C5.125 9.8125 5.125 9.8125 5 12 C1.70343678 10.35171839 1.24171391 7.33005093 0 4 C0 2.68 0 1.36 0 0 Z " fill="#3A3839" transform="translate(174,183)"/>
<path d="M0 0 C0.33 0.66 0.66 1.32 1 2 C0.0165004 3.73751596 -0.97220312 5.47271756 -2.0078125 7.1796875 C-3.22009871 9.40380314 -3.69637362 11.49508234 -4 14 C-4.66 14 -5.32 14 -6 14 C-6.33 12.68 -6.66 11.36 -7 10 C-6.34 10 -5.68 10 -5 10 C-4.34 8.02 -3.68 6.04 -3 4 C-2.34 4 -1.68 4 -1 4 C-0.67 2.68 -0.34 1.36 0 0 Z " fill="#18181A" transform="translate(165,155)"/>
<path d="M0 0 C3 1 3 1 4.75 4.4375 C5.36875 6.2009375 5.36875 6.2009375 6 8 C5.67 8.66 5.34 9.32 5 10 C4.34 10 3.68 10 3 10 C3 8.68 3 7.36 3 6 C2.34 6 1.68 6 1 6 C0.67 4.02 0.34 2.04 0 0 Z " fill="#202020" transform="translate(137,123)"/>
<path d="M0 0 C6.75 0.875 6.75 0.875 9 2 C9 2.66 9 3.32 9 4 C6.03 3.67 3.06 3.34 0 3 C0 2.01 0 1.02 0 0 Z " fill="#474747" transform="translate(222,8)"/>
<path d="M0 0 C1.32 0.66 2.64 1.32 4 2 C2.35 3.65 0.7 5.3 -1 7 C-2.32 6.34 -3.64 5.68 -5 5 C-3.35 3.35 -1.7 1.7 0 0 Z " fill="#323232" transform="translate(142,228)"/>
<path d="M0 0 C1.12377697 3.30435084 0.89554742 5.0506862 -0.4375 8.25 C-0.72496094 8.95640625 -1.01242188 9.6628125 -1.30859375 10.390625 C-1.53675781 10.92171875 -1.76492187 11.4528125 -2 12 C-2.66 12 -3.32 12 -4 12 C-4.33 12.66 -4.66 13.32 -5 14 C-4.46515599 8.65155992 -2.53309233 4.64203897 0 0 Z " fill="#3A3A3C" transform="translate(176,153)"/>
<path d="M0 0 C0.99 0.33 1.98 0.66 3 1 C1.59794495 3.80411009 -0.26727293 4.53830878 -3 6 C-5.3125 6.6875 -5.3125 6.6875 -7 7 C-6.34 6.67 -5.68 6.34 -5 6 C-5 4.68 -5 3.36 -5 2 C-4.360625 1.855625 -3.72125 1.71125 -3.0625 1.5625 C-1.02454854 1.18992819 -1.02454854 1.18992819 0 0 Z " fill="#5A5A5A" transform="translate(272,313)"/>
<path d="M0 0 C0.66 0 1.32 0 2 0 C5 6.625 5 6.625 5 10 C4.34 10 3.68 10 3 10 C0 3.375 0 3.375 0 0 Z " fill="#39333B" transform="translate(11,225)"/>
<path d="M0 0 C0.66 1.32 1.32 2.64 2 4 C3.98 3.34 5.96 2.68 8 2 C7.67 2.99 7.34 3.98 7 5 C0.25 6.125 0.25 6.125 -2 5 C-1.125 1.125 -1.125 1.125 0 0 Z " fill="#3C3C3C" transform="translate(130,226)"/>
<path d="M0 0 C0 0.33 0 0.66 0 1 C-1.65 1 -3.3 1 -5 1 C-5.33 4.63 -5.66 8.26 -6 12 C-6.33 12 -6.66 12 -7 12 C-7 9.03 -7 6.06 -7 3 C-7.99 2.67 -8.98 2.34 -10 2 C-6.3558226 -0.4294516 -4.28758728 -0.16179575 0 0 Z " fill="#1C1C1D" transform="translate(138,214)"/>
<path d="M0 0 C0.66 0 1.32 0 2 0 C1.67 3.3 1.34 6.6 1 10 C0.01 10 -0.98 10 -2 10 C-2 8.68 -2 7.36 -2 6 C-1.34 6 -0.68 6 0 6 C0 4.02 0 2.04 0 0 Z " fill="#525051" transform="translate(11,118)"/>
<path d="M0 0 C-0.625 1.875 -0.625 1.875 -2 4 C-5 5.1875 -5 5.1875 -8 6 C-8.99 6.495 -8.99 6.495 -10 7 C-8.2054392 2.26888516 -5.07937287 0 0 0 Z " fill="#121212" transform="translate(279,309)"/>
<path d="M0 0 C0.66 0 1.32 0 2 0 C1.375 1.875 1.375 1.875 0 4 C-3 5.125 -3 5.125 -6 6 C-6.66 6.66 -7.32 7.32 -8 8 C-7.75 6.125 -7.75 6.125 -7 4 C-4.41847698 2.27898465 -3.15081975 2 0 2 C0 1.34 0 0.68 0 0 Z " fill="#474747" transform="translate(291,298)"/>
<path d="M0 0 C-0.8125 1.9375 -0.8125 1.9375 -2 4 C-2.99 4.33 -3.98 4.66 -5 5 C-5.33 5.99 -5.66 6.98 -6 8 C-6.66 8 -7.32 8 -8 8 C-7.32253522 3.25774652 -4.9532836 0 0 0 Z " fill="#7B7B7B" transform="translate(307,284)"/>
<path d="M0 0 C0.66 0 1.32 0 2 0 C2.66 1.65 3.32 3.3 4 5 C3.34 5 2.68 5 2 5 C2 6.65 2 8.3 2 10 C0 8 0 8 -0.1953125 6.0546875 C-0.13020833 4.03645833 -0.06510417 2.01822917 0 0 Z " fill="#353435" transform="translate(127,109)"/>
<path d="M0 0 C0.66 0 1.32 0 2 0 C2.99 2.64 3.98 5.28 5 8 C3.68 8 2.36 8 1 8 C0.67 5.36 0.34 2.72 0 0 Z " fill="#656565" transform="translate(327,94)"/>
<path d="M0 0 C0 0.66 0 1.32 0 2 C-3.465 3.485 -3.465 3.485 -7 5 C-7.33 3.68 -7.66 2.36 -8 1 C-2.25 0 -2.25 0 0 0 Z " fill="#3C3C3C" transform="translate(259,323)"/>
<path d="M0 0 C0.33 0.66 0.66 1.32 1 2 C-4.28 1.67 -9.56 1.34 -15 1 C-15 0.67 -15 0.34 -15 0 C-9.83827917 -0.7455819 -5.11870643 -1.40764427 0 0 Z " fill="#29272A" transform="translate(197,210)"/>
<path d="M0 0 C2 2 2 2 2 5 C1.34 5 0.68 5 0 5 C-0.66 6.32 -1.32 7.64 -2 9 C-2.33 9 -2.66 9 -3 9 C-3 7.35 -3 5.7 -3 4 C-2.34 4 -1.68 4 -1 4 C-0.67 2.68 -0.34 1.36 0 0 Z " fill="#141417" transform="translate(152,183)"/>
<path d="M0 0 C0.66 0 1.32 0 2 0 C2 1.98 2 3.96 2 6 C1.01 6.33 0.02 6.66 -1 7 C-1.33 7.99 -1.66 8.98 -2 10 C-1.125 2.25 -1.125 2.25 0 0 Z " fill="#373538" transform="translate(182,134)"/>
<path d="M0 0 C0.66 0 1.32 0 2 0 C2.66 2.64 3.32 5.28 4 8 C3.01 8.495 3.01 8.495 2 9 C-1.07692308 4.56923077 -1.07692308 4.56923077 -0.6875 1.6875 C-0.460625 1.130625 -0.23375 0.57375 0 0 Z " fill="#1F1D21" transform="translate(133,113)"/>
<path d="M0 0 C1 2 1 2 0.4375 4.5625 C-1 7 -1 7 -4.125 7.8125 C-5.548125 7.9053125 -5.548125 7.9053125 -7 8 C-6.02133662 6.85373678 -5.04205413 5.70800212 -4.0625 4.5625 C-3.51722656 3.92441406 -2.97195312 3.28632812 -2.41015625 2.62890625 C-1.63204305 1.73008851 -0.84063472 0.84063472 0 0 Z " fill="#7B7B7B" transform="translate(52,52)"/>
<path d="M0 0 C0 0.66 0 1.32 0 2 C-3.63 2.33 -7.26 2.66 -11 3 C-10 1 -10 1 -8.3125 0.375 C-5.51555886 -0.07855802 -2.82858003 -0.06428591 0 0 Z " fill="#878787" transform="translate(143,4)"/>
<path d="M0 0 C1.93719378 -0.05406122 3.87481921 -0.09282025 5.8125 -0.125 C6.89144531 -0.14820313 7.97039062 -0.17140625 9.08203125 -0.1953125 C12 0 12 0 15 2 C15 2.66 15 3.32 15 4 C13.68 3.67 12.36 3.34 11 3 C11 2.34 11 1.68 11 1 C7.37 1 3.74 1 0 1 C0 0.67 0 0.34 0 0 Z " fill="#191919" transform="translate(187,238)"/>
<path d="M0 0 C0.99 0.66 1.98 1.32 3 2 C1.87548273 4.9719385 0.77706209 7.33440687 -1 10 C-2.15837626 5.94568308 -1.83691257 3.78187881 0 0 Z " fill="#252429" transform="translate(148,189)"/>
<path d="M0 0 C1.32 0 2.64 0 4 0 C6.25 2.5 6.25 2.5 8 5 C6.35 5 4.7 5 3 5 C2.67 4.01 2.34 3.02 2 2 C1.34 2 0.68 2 0 2 C0 1.34 0 0.68 0 0 Z " fill="#292929" transform="translate(291,49)"/>
<path d="M0 0 C0.33 0.66 0.66 1.32 1 2 C0.34 2 -0.32 2 -1 2 C-1.33 3.32 -1.66 4.64 -2 6 C-3.65 6.33 -5.3 6.66 -7 7 C-7 6.34 -7 5.68 -7 5 C-4.75598043 3.05124617 -2.66363467 1.33181733 0 0 Z " fill="#797979" transform="translate(74,33)"/>
<path d="M0 0 C0.66 0 1.32 0 2 0 C1.45276317 3.37462715 0.9451 5.08235 -1 8 C-1.66 8 -2.32 8 -3 8 C-2.67 6.35 -2.34 4.7 -2 3 C-1.34 3 -0.68 3 0 3 C0 2.01 0 1.02 0 0 Z " fill="#4E4B4E" transform="translate(327,250)"/>
<path d="M0 0 C0.66 0 1.32 0 2 0 C2.33 2.31 2.66 4.62 3 7 C1.35 7 -0.3 7 -2 7 C-2 6.34 -2 5.68 -2 5 C-1.34 5 -0.68 5 0 5 C0 3.35 0 1.7 0 0 Z " fill="#1A1A1A" transform="translate(189,227)"/>
<path d="M0 0 C1.32 0 2.64 0 4 0 C4 0.66 4 1.32 4 2 C5.32 2.66 6.64 3.32 8 4 C8 4.99 8 5.98 8 7 C5.96166576 5.7260411 3.96147874 4.38938077 2 3 C2 2.34 2 1.68 2 1 C1.34 0.67 0.68 0.34 0 0 Z " fill="#282829" transform="translate(161,192)"/>
<path d="M0 0 C0.99 0 1.98 0 3 0 C2.44271087 3.34373475 1.64826111 6.03312999 0 9 C-1.10844919 5.67465243 -0.84454356 3.37817425 0 0 Z " fill="#1A191C" transform="translate(188,120)"/>
<path d="M0 0 C4.41889613 1.35021826 6.34345343 3.26115668 9 7 C7.68 6.67 6.36 6.34 5 6 C5 5.34 5 4.68 5 4 C4.360625 3.896875 3.72125 3.79375 3.0625 3.6875 C2.381875 3.460625 1.70125 3.23375 1 3 C0.67 2.01 0.34 1.02 0 0 Z " fill="#949494" transform="translate(285,42)"/>
<path d="M0 0 C0.99 0 1.98 0 3 0 C3 0.66 3 1.32 3 2 C4.65 2.33 6.3 2.66 8 3 C8 3.66 8 4.32 8 5 C5.03 4.505 5.03 4.505 2 4 C2 3.34 2 2.68 2 2 C1.34 2 0.68 2 0 2 C0 1.34 0 0.68 0 0 Z " fill="#919191" transform="translate(260,24)"/>
<path d="M0 0 C1.60725635 3.21451269 1.05748185 6.43612536 1 10 C-0.65 9.01 -2.3 8.02 -4 7 C-3.67 6.01 -3.34 5.02 -3 4 C-3 4.66 -3 5.32 -3 6 C-2.34 6 -1.68 6 -1 6 C-1.020625 5.195625 -1.04125 4.39125 -1.0625 3.5625 C-1 1 -1 1 0 0 Z " fill="#242427" transform="translate(162,163)"/>
<path d="M0 0 C0.97744926 3.04095325 1.16271218 4.99632687 0 8 C-1.5625 9.75 -1.5625 9.75 -3 11 C-2.53199289 6.94393835 -2.12046792 3.53411321 0 0 Z " fill="#424244" transform="translate(165,157)"/>
<path d="M0 0 C1 3 1 3 0.22265625 5.04296875 C-0.16019531 5.75066406 -0.54304687 6.45835937 -0.9375 7.1875 C-1.31777344 7.90292969 -1.69804687 8.61835938 -2.08984375 9.35546875 C-2.54037109 10.16951172 -2.54037109 10.16951172 -3 11 C-3.33 11 -3.66 11 -4 11 C-4.56638908 6.18569279 -2.82561627 3.79692186 0 0 Z " fill="#151416" transform="translate(211,151)"/>
<path d="M0 0 C3.2542015 2.83430453 4.5206753 4.68607774 5 9 C4.34 9 3.68 9 3 9 C0 3.375 0 3.375 0 0 Z " fill="#19191B" transform="translate(143,134)"/>
<path d="M0 0 C2.31 0.33 4.62 0.66 7 1 C6.67 2.32 6.34 3.64 6 5 C5.34 5 4.68 5 4 5 C4 4.34 4 3.68 4 3 C2.68 2.67 1.36 2.34 0 2 C0 1.34 0 0.68 0 0 Z " fill="#535253" transform="translate(81,317)"/>
<path d="M0 0 C1.98 0.99 3.96 1.98 6 3 C6 3.66 6 4.32 6 5 C4.35 5 2.7 5 1 5 C0.67 3.35 0.34 1.7 0 0 Z " fill="#393939" transform="translate(55,295)"/>
<path d="M0 0 C0.66 0 1.32 0 2 0 C6 5.41176471 6 5.41176471 6 8 C5.34 8 4.68 8 4 8 C0 3.64705882 0 3.64705882 0 0 Z " fill="#5B5B5B" transform="translate(27,261)"/>
<path d="M0 0 C0.99 0.66 1.98 1.32 3 2 C3 2.66 3 3.32 3 4 C3.66 4 4.32 4 5 4 C5 4.66 5 5.32 5 6 C2 7 2 7 -0.1875 6.0625 C-0.785625 5.711875 -1.38375 5.36125 -2 5 C-1.34 4.67 -0.68 4.34 0 4 C0.66 4.33 1.32 4.66 2 5 C1.34 3.35 0.68 1.7 0 0 Z " fill="#2D2D2D" transform="translate(182,228)"/>
<path d="M0 0 C1 3 1 3 0 6 C-1.65 6 -3.3 6 -5 6 C-3.35 4.02 -1.7 2.04 0 0 Z " fill="#1A1819" transform="translate(146,229)"/>
<path d="M0 0 C1.98 0.495 1.98 0.495 4 1 C4 1.99 4 2.98 4 4 C2.35 4 0.7 4 -1 4 C-0.67 2.68 -0.34 1.36 0 0 Z " fill="#121212" transform="translate(158,179)"/>
<path d="M0 0 C0.99 0.33 1.98 0.66 3 1 C3.33 2.98 3.66 4.96 4 7 C2.02 6.34 0.04 5.68 -2 5 C-1.01 4.34 -0.02 3.68 1 3 C0.67 2.01 0.34 1.02 0 0 Z " fill="#414143" transform="translate(160,173)"/>
<path d="M0 0 C3.67230705 3.07999946 4.56802365 5.2482602 5 10 C2.66063182 7.87330165 1.19346152 5.93775144 0 3 C0 2.01 0 1.02 0 0 Z " fill="#3A383B" transform="translate(142,165)"/>
<path d="M0 0 C0.99 0 1.98 0 3 0 C2.67 2.64 2.34 5.28 2 8 C0.4375 6.25 0.4375 6.25 -1 4 C-0.6875 1.75 -0.6875 1.75 0 0 Z " fill="#2B2B2B" transform="translate(188,108)"/>
<path d="M0 0 C-3.4352048 2.29013653 -4.985331 2.17842973 -9 2 C-9 1.34 -9 0.68 -9 0 C-5.62182575 -0.84454356 -3.32534757 -1.10844919 0 0 Z " fill="#6D6D6E" transform="translate(117,13)"/>
<path d="M0 0 C2.31 0.33 4.62 0.66 7 1 C7 1.99 7 2.98 7 4 C4.69 3.34 2.38 2.68 0 2 C0 1.34 0 0.68 0 0 Z " fill="#3A3A3C" transform="translate(115,334)"/>
<path d="M0 0 C2.375 0.25 2.375 0.25 5 1 C6.3125 3.0625 6.3125 3.0625 7 5 C2.25 3.125 2.25 3.125 0 2 C0 1.34 0 0.68 0 0 Z " fill="#231F23" transform="translate(87,320)"/>
<path d="M0 0 C0.66 0 1.32 0 2 0 C3.2890625 1.75 3.2890625 1.75 4.625 4 C5.07101563 4.7425 5.51703125 5.485 5.9765625 6.25 C6.31429687 6.8275 6.65203125 7.405 7 8 C3.68532105 6.46593371 1.96055229 5.13688367 0 2 C0 1.34 0 0.68 0 0 Z " fill="#373435" transform="translate(212,216)"/>
<path d="M0 0 C0.66 1.32 1.32 2.64 2 4 C1.34 4 0.68 4 0 4 C0 2.68 0 1.36 0 0 Z M-4 3 C-2.68 3.33 -1.36 3.66 0 4 C-0.33 5.32 -0.66 6.64 -1 8 C-2.5 6.625 -2.5 6.625 -4 5 C-4 4.34 -4 3.68 -4 3 Z " fill="#1E1E1E" transform="translate(175,189)"/>
<path d="M0 0 C2.5625 2.25 2.5625 2.25 5 5 C4.8125 7.3125 4.8125 7.3125 4 9 C0 3.375 0 3.375 0 0 Z " fill="#373738" transform="translate(191,180)"/>
<path d="M0 0 C0.33 0.66 0.66 1.32 1 2 C-0.25 3.5 -0.25 3.5 -2 5 C-3.32 5 -4.64 5 -6 5 C-6 4.34 -6 3.68 -6 3 C-4.02 2.01 -2.04 1.02 0 0 Z " fill="#85858B" transform="translate(93,21)"/>
</svg>
